<svg xmlns="http://www.w3.org/2000/svg" width="55.5" height="50.636" viewBox="0 0 55.5 50.636">
  <g id="abps" transform="translate(-4 -6.482)">
    <path id="Path_1" data-name="Path 1" d="M52.478,32.995q.022-.506.022-1.013A23.627,23.627,0,0,0,35.271,9.343a1,1,0,1,1,.541-1.926A25.635,25.635,0,0,1,54.5,31.982q0,.777-.047,1.553c-.051.835-.415.066-.917-.094C53.06,33.29,52.444,33.792,52.478,32.995ZM7.453,21.384a1,1,0,0,1-.878-1.478A25.441,25.441,0,0,1,31.767,6.633a1,1,0,1,1-.219,1.989A23.255,23.255,0,0,0,29,8.482,23.558,23.558,0,0,0,8.332,20.861a1,1,0,0,1-.879.523ZM4.963,37.227a.5.5,0,0,1-.49-.4A25.064,25.064,0,0,1,4,31.982a24.67,24.67,0,0,1,1.481-8.434.5.5,0,0,1,.941.341A23.66,23.66,0,0,0,5,31.982a24,24,0,0,0,.455,4.647.5.5,0,0,1-.492.6Z" fill="#062f71"/>
    <path id="Path_2" data-name="Path 2" d="M15.854,16.641a.5.5,0,0,1-.32-.885,20.28,20.28,0,0,1,9.438-4.378A20.568,20.568,0,0,1,40.9,15.151a.5.5,0,0,1-.6.8A19.57,19.57,0,0,0,25.15,12.362a19.3,19.3,0,0,0-8.977,4.163.49.49,0,0,1-.319.116ZM47.943,33.757a44.03,44.03,0,0,0-.64-5.57,18.949,18.949,0,0,0-4.587-9.36A1,1,0,1,1,44.2,17.486a20.95,20.95,0,0,1,5.071,10.346,45.989,45.989,0,0,1,.637,5.268c.029.458-.423.407-.892.556-.513.165-1.053.49-1.073.1ZM6.082,41.646a1,1,0,0,1-.6-1.8l.233-.181c.16-.125.32-.25.491-.366A4.036,4.036,0,0,0,8,35.982a3.944,3.944,0,0,0-.063-.706,20.972,20.972,0,0,1,4.472-17.091,1,1,0,0,1,1.543,1.273A18.979,18.979,0,0,0,9.905,34.921a5.956,5.956,0,0,1,.1,1.061A6.028,6.028,0,0,1,7.332,40.95c-.133.091-.257.189-.381.287l-.271.209a.993.993,0,0,1-.6.2Zm35.088,12.6a1,1,0,0,1-.9-1.422,40.03,40.03,0,0,0,3.4-11.713c.071-.548,1.6,2.683,1.491,3.2a41.92,41.92,0,0,1-3.083,9.353,1,1,0,0,1-.907.578ZM7.84,45.325A1,1,0,0,1,7.2,43.553c.46-.378.859-.68,1.254-.949A8.206,8.206,0,0,0,10.3,40.878a1,1,0,0,1,1.575,1.232,10.192,10.192,0,0,1-2.293,2.146c-.345.235-.7.5-1.109.842a1,1,0,0,1-.636.227Z" fill="#062f71"/>
    <path id="Path_3" data-name="Path 3" d="M12.781,38.442a.5.5,0,0,1-.488-.611,8.42,8.42,0,0,0,.072-3.355,16.5,16.5,0,0,1,32.479-5.848,41.547,41.547,0,0,1,.656,7.353c0,.343-1.02,1.278-1.013,1a40.592,40.592,0,0,0-.628-8.178A15.5,15.5,0,1,0,13.35,34.3a9.48,9.48,0,0,1-.081,3.753.5.5,0,0,1-.488.391Z" fill="#062f71"/>
    <path id="Path_4" data-name="Path 4" d="M16.61,32.983a1,1,0,0,1-1-.963,13.018,13.018,0,0,1,13.42-13.463,1,1,0,0,1-.063,2A11.017,11.017,0,0,0,17.61,31.945a1,1,0,0,1-.962,1.037ZM39.542,46.732a.5.5,0,0,1-.481-.64A36.279,36.279,0,0,0,40.5,35.982a36.647,36.647,0,0,0-.577-6.466,11.44,11.44,0,0,0-7.107-8.667.5.5,0,0,1,.367-.931,12.438,12.438,0,0,1,7.725,9.42,37.321,37.321,0,0,1-.885,17.033.5.5,0,0,1-.481.361ZM35.3,56.66a1,1,0,0,1-.845-1.533,36.353,36.353,0,0,0,2.92-5.7,1,1,0,1,1,1.854.75,38.2,38.2,0,0,1-3.082,6.014A1,1,0,0,1,35.3,56.66ZM10.141,48.12a.5.5,0,0,1-.329-.877,12.322,12.322,0,0,1,1.18-.921A12.526,12.526,0,0,0,16.5,35.982a.5.5,0,0,1,1,0,13.524,13.524,0,0,1-5.945,11.166A11.359,11.359,0,0,0,10.47,48a.5.5,0,0,1-.329.123Z" fill="#062f71"/>
    <path id="Path_5" data-name="Path 5" d="M36.477,31.136a1,1,0,0,1-.983-.823,7,7,0,0,0-8.129-5.649,7.03,7.03,0,0,0-1.514.452,1,1,0,1,1-.784-1.84,9.077,9.077,0,0,1,1.944-.58,9,9,0,0,1,10.453,7.263,1,1,0,0,1-.987,1.177ZM29.851,56.961a.5.5,0,0,1-.392-.81A32.574,32.574,0,0,0,36.5,35.982q0-.968-.058-1.937a.5.5,0,0,1,.47-.528.491.491,0,0,1,.528.47q.06,1,.06,1.995a33.577,33.577,0,0,1-7.257,20.789.5.5,0,0,1-.392.19Zm-16.9-5.981a.5.5,0,0,1-.317-.887c.2-.161.4-.318.615-.466a16.692,16.692,0,0,0,3.507-3.2.5.5,0,1,1,.773.635,17.67,17.67,0,0,1-3.716,3.4c-.189.13-.37.27-.544.413a.5.5,0,0,1-.318.113ZM19.3,44.366a1,1,0,0,1-.9-1.437,15.921,15.921,0,0,0,1.346-9.781,8.957,8.957,0,0,1,2.11-7.551,1,1,0,1,1,1.5,1.322,6.969,6.969,0,0,0-1.642,5.875A17.911,17.911,0,0,1,20.2,43.8a1,1,0,0,1-.9.564Z" fill="#062f71"/>
    <path id="Path_6" data-name="Path 6" d="M32.52,41.736a.5.5,0,0,1-.493-.591,28.49,28.49,0,0,0,.022-10.211,3.5,3.5,0,1,0-6.888,1.239,21.553,21.553,0,0,1,.257,5.689.506.506,0,0,1-.542.454.5.5,0,0,1-.455-.542,20.592,20.592,0,0,0-.245-5.424,4.5,4.5,0,1,1,8.857-1.594,29.5,29.5,0,0,1-.023,10.571.5.5,0,0,1-.49.409ZM24.809,57.118a1,1,0,0,1-.718-1.695,28.219,28.219,0,0,0,6.4-10.39,1,1,0,0,1,1.892.649,30.23,30.23,0,0,1-6.855,11.132,1,1,0,0,1-.719.3Zm-8.494-3.172a1,1,0,0,1-.59-1.808,20.174,20.174,0,0,0,7.5-10.671,1,1,0,1,1,1.923.55A22.178,22.178,0,0,1,16.9,53.754a.993.993,0,0,1-.588.192Z" fill="#062f71"/>
    <path id="Path_7" data-name="Path 7" d="M20.313,55.892a1,1,0,0,1-.655-1.756A23.932,23.932,0,0,0,27.62,31.731a1,1,0,1,1,1.969-.355A26.07,26.07,0,0,1,30,35.982a26,26,0,0,1-9.033,19.665A.99.99,0,0,1,20.313,55.892Z" fill="#062f71"/>
    <path id="Path_8" data-name="Path 8" d="M50.25,43.932a1,1,0,0,1-.707-.293l-2.5-2.5a1,1,0,0,1,1.414-1.414l1.793,1.793,4.293-4.293a1,1,0,1,1,1.414,1.414l-5,5a1,1,0,0,1-.707.293Z" fill="#01b9f1"/>
    <path id="Path_9" data-name="Path 9" d="M51.5,48.432a8,8,0,1,1,8-8A8.009,8.009,0,0,1,51.5,48.432Zm0-15a7,7,0,1,0,7,7A7.009,7.009,0,0,0,51.5,33.432Z" fill="#01b9f1"/>
  </g>
</svg>
