<svg xmlns="http://www.w3.org/2000/svg" viewBox="0 0 64 64"><path fill="#ffffff" d="M52.478 32.995c.015-.337.022-.675.022-1.013 0-10.484-7.085-19.794-17.229-22.639a1 1 0 1 1 .541-1.926C46.814 10.504 54.5 20.605 54.5 31.982c0 .518-.016 1.036-.047 1.553-.051.835-.415.066-.917-.094-.476-.151-1.092.351-1.058-.446zM7.453 21.384a1 1 0 0 1-.878-1.478C11.078 11.626 19.67 6.482 29 6.482c.923 0 1.854.051 2.767.151a1 1 0 0 1-.219 1.989c-.84-.093-1.698-.14-2.548-.14-8.596 0-16.516 4.744-20.668 12.379a.999.999 0 0 1-.879.523zM4.963 37.227a.5.5 0 0 1-.49-.403A25.064 25.064 0 0 1 4 31.982c0-2.888.499-5.726 1.481-8.434a.5.5 0 1 1 .941.341A23.66 23.66 0 0 0 5 31.982c0 1.557.153 3.121.455 4.647a.5.5 0 0 1-.492.598z"/><path fill="#ffffff" d="M15.854 16.641a.5.5 0 0 1-.32-.885 20.28 20.28 0 0 1 9.438-4.378 20.568 20.568 0 0 1 15.93 3.773.5.5 0 0 1-.599.8 19.57 19.57 0 0 0-15.153-3.589 19.3 19.3 0 0 0-8.977 4.163.49.49 0 0 1-.319.116zM47.943 33.757a44.03 44.03 0 0 0-.64-5.57 18.949 18.949 0 0 0-4.587-9.36 1 1 0 0 1 1.484-1.341 20.95 20.95 0 0 1 5.071 10.346c.313 1.737.526 3.5.637 5.268.029.458-.423.407-.892.556-.513.165-1.053.49-1.073.101zM6.082 41.646a1 1 0 0 1-.6-1.8l.233-.181c.16-.125.32-.25.491-.366C7.329 38.532 8 37.293 8 35.982c0-.238-.021-.476-.063-.706a20.972 20.972 0 0 1 4.472-17.091 1 1 0 0 1 1.543 1.273 18.979 18.979 0 0 0-4.047 15.463c.063.347.095.704.095 1.061 0 1.973-.997 3.829-2.668 4.968-.133.091-.257.189-.381.287l-.271.209c-.18.135-.39.2-.598.2zM41.17 54.242a.998.998 0 0 1-.905-1.422 40.03 40.03 0 0 0 3.404-11.713c.071-.548 1.597 2.683 1.491 3.204a41.92 41.92 0 0 1-3.083 9.353 1 1 0 0 1-.907.578zM7.84 45.325a1 1 0 0 1-.636-1.772c.46-.378.859-.68 1.254-.949a8.206 8.206 0 0 0 1.845-1.726.998.998 0 0 1 1.404-.171c.435.34.512.969.171 1.403a10.192 10.192 0 0 1-2.293 2.146c-.345.235-.698.502-1.109.842a1.002 1.002 0 0 1-.636.227z"/><path fill="#ffffff" d="M12.781 38.442a.5.5 0 0 1-.488-.611 8.42 8.42 0 0 0 .072-3.355c-1.612-8.955 4.362-17.551 13.316-19.163 8.956-1.61 17.55 4.366 19.163 13.315.436 2.418.656 4.892.656 7.353 0 .343-1.02 1.278-1.013 1.003a40.592 40.592 0 0 0-.628-8.178c-1.514-8.408-9.59-14.021-18.001-12.509-8.411 1.515-14.022 9.59-12.508 18.001a9.48 9.48 0 0 1-.081 3.753.5.5 0 0 1-.488.391z"/><path fill="#ffffff" d="M16.61 32.983a1 1 0 0 1-.999-.963c-.238-6.42 4.358-12.121 10.69-13.261.902-.163 1.82-.231 2.73-.202.552.018.985.479.968 1.031s-.488.983-1.031.968a10.945 10.945 0 0 0-2.312.171c-5.359.965-9.248 5.788-9.046 11.218a1.002 1.002 0 0 1-.962 1.037l-.038.001zM39.542 46.732a.5.5 0 0 1-.481-.64 36.279 36.279 0 0 0 1.439-10.11c0-2.16-.194-4.335-.577-6.466a11.44 11.44 0 0 0-7.107-8.667.5.5 0 0 1 .367-.931 12.438 12.438 0 0 1 7.725 9.42 37.321 37.321 0 0 1-.885 17.033.501.501 0 0 1-.481.361zM35.302 56.66a1 1 0 0 1-.845-1.533 36.353 36.353 0 0 0 2.92-5.697 1 1 0 0 1 1.854.75 38.195 38.195 0 0 1-3.082 6.014 1 1 0 0 1-.847.466zM10.141 48.12a.5.5 0 0 1-.329-.877c.417-.364.803-.665 1.18-.921 3.449-2.351 5.508-6.216 5.508-10.34a.5.5 0 0 1 1 0c0 4.455-2.223 8.63-5.945 11.166a11.36 11.36 0 0 0-1.085.849.497.497 0 0 1-.329.123z"/><path fill="#ffffff" d="M36.477 31.136a1 1 0 0 1-.983-.823 6.95 6.95 0 0 0-2.896-4.508 6.947 6.947 0 0 0-5.233-1.141 7.03 7.03 0 0 0-1.514.452 1 1 0 0 1-.784-1.84 9.077 9.077 0 0 1 1.944-.58 8.94 8.94 0 0 1 6.729 1.467 8.94 8.94 0 0 1 3.724 5.796 1.002 1.002 0 0 1-.987 1.177zM29.851 56.961a.5.5 0 0 1-.392-.81A32.574 32.574 0 0 0 36.5 35.982c0-.645-.02-1.291-.058-1.937a.499.499 0 0 1 .47-.528c.275-.03.512.194.528.47.04.665.06 1.331.06 1.995a33.577 33.577 0 0 1-7.257 20.789.496.496 0 0 1-.392.19zM12.946 50.98a.499.499 0 0 1-.317-.887c.197-.161.4-.318.615-.466a16.692 16.692 0 0 0 3.507-3.203.5.5 0 0 1 .773.635 17.67 17.67 0 0 1-3.716 3.395c-.189.13-.37.27-.544.413a.505.505 0 0 1-.318.113zM19.3 44.366a1 1 0 0 1-.899-1.437A16.002 16.002 0 0 0 20 35.982c0-.949-.085-1.902-.253-2.834a8.957 8.957 0 0 1 2.11-7.551 1 1 0 1 1 1.5 1.322 6.969 6.969 0 0 0-1.642 5.875c.189 1.048.285 2.121.285 3.188 0 2.69-.623 5.395-1.8 7.82a1 1 0 0 1-.9.564z"/><path fill="#ffffff" d="M32.52 41.736a.5.5 0 0 1-.493-.591 28.49 28.49 0 0 0 .022-10.211 3.506 3.506 0 0 0-4.064-2.825 3.476 3.476 0 0 0-2.254 1.447 3.473 3.473 0 0 0-.57 2.617 21.553 21.553 0 0 1 .257 5.689.506.506 0 0 1-.542.454.5.5 0 0 1-.455-.542 20.592 20.592 0 0 0-.245-5.424c-.213-1.183.047-2.377.733-3.365s1.715-1.648 2.898-1.861a4.507 4.507 0 0 1 5.226 3.632 29.5 29.5 0 0 1-.023 10.571.499.499 0 0 1-.49.409zM24.809 57.118a1 1 0 0 1-.718-1.695c2.873-2.967 5.086-6.56 6.4-10.39a1.001 1.001 0 0 1 1.892.649c-1.409 4.106-3.779 7.956-6.855 11.132a.998.998 0 0 1-.719.304zM16.315 53.946a.999.999 0 0 1-.59-1.808c3.621-2.638 6.286-6.427 7.504-10.671a1 1 0 1 1 1.923.55c-1.34 4.671-4.27 8.839-8.249 11.737a.993.993 0 0 1-.588.192z"/><path fill="#ffffff" d="M20.313 55.892a1 1 0 0 1-.655-1.756C24.96 49.551 28 42.934 28 35.982c0-1.422-.128-2.853-.38-4.251a1.002 1.002 0 0 1 .807-1.162.998.998 0 0 1 1.162.807A26.07 26.07 0 0 1 30 35.982c0 7.532-3.292 14.7-9.033 19.665a.99.99 0 0 1-.654.245z"/><path fill="#ffffff" d="M50.25 43.932a.997.997 0 0 1-.707-.293l-2.5-2.5a.999.999 0 1 1 1.414-1.414l1.793 1.793 4.293-4.293a.999.999 0 1 1 1.414 1.414l-5 5a.997.997 0 0 1-.707.293z"/><path fill="#ffffff" d="M51.5 48.432c-4.411 0-8-3.589-8-8s3.589-8 8-8 8 3.589 8 8-3.589 8-8 8zm0-15c-3.859 0-7 3.141-7 7s3.141 7 7 7 7-3.141 7-7-3.141-7-7-7z"/></svg>