<svg xmlns="http://www.w3.org/2000/svg" width="32" height="32" viewBox="0 0 32 32"><g transform="translate(0 -1020.362)"><path fill="#ffffff" style="line-height:normal;text-indent:0;text-align:start;text-decoration-line:none;text-decoration-style:solid;text-decoration-color:#000;text-transform:none;block-progression:tb;isolation:auto;mix-blend-mode:normal" d="M 8.5722656,1026.3613 C 7.7103702,1026.3613 7,1027.0716 7,1027.9336 l 0,3.0449 1,0 0,-3.0449 c 0,-0.3253 0.247001,-0.5723 0.5722656,-0.5723 l 21.8554684,0 c 0.325265,0 0.572266,0.247 0.572266,0.5723 l 0,12.8574 c 0,0.3251 -0.247057,0.5703 -0.572266,0.5703 l -7.767578,0 0,1 7.767578,0 c 0.861952,0 1.572266,-0.7084 1.572266,-1.5703 l 0,-12.8574 c 0,-0.862 -0.71037,-1.5723 -1.572266,-1.5723 l -21.8554684,0 z" color="#000" font-family="sans-serif" font-weight="400" overflow="visible"/><path fill="#ffffff" style="line-height:normal;text-indent:0;text-align:start;text-decoration-line:none;text-decoration-style:solid;text-decoration-color:#000;text-transform:none;block-progression:tb;isolation:auto;mix-blend-mode:normal" d="M7.5 1028.3613l0 1 23.5 0 0 2-8.667969 0 0 1 9.667969 0 0-4-24.5 0zM23.472656 1034.3633c-.339723.0006-.669567.075-.972656.207l.398438.918c.186546-.081.384005-.125.578124-.125l.002 0 .0039 0c.355007 0 .657351.1922.927734.414-.179801.3496-.409335.6833-.410156 1.0821l0 0c.000529.4085.231951.7532.419922 1.1094-.440502.361-1.026655.4972-1.556641.25l-.421875.9063c1.004278.4684 2.202035.2171 2.933594-.6153l.291016-.3301-.291016-.33c-.241245-.2735-.374527-.6254-.375-.9903.00075-.364.133991-.715.375-.9883l.291016-.33-.291016-.3301c-.48011-.5464-1.175074-.8568-1.902344-.8496z" color="#000" font-family="sans-serif" font-weight="400" overflow="visible"/><path fill="#ffffff" style="line-height:normal;text-indent:0;text-align:start;text-decoration-line:none;text-decoration-style:solid;text-decoration-color:#000;text-transform:none;block-progression:tb;isolation:auto;mix-blend-mode:normal" d="m 26.5,1034.3613 c -1.37479,0 -2.499994,1.1252 -2.5,2.5 6e-6,1.3748 1.12521,2.5 2.5,2.5 1.37479,0 2.499994,-1.1252 2.5,-2.5 -6e-6,-1.3748 -1.12521,-2.5 -2.5,-2.5 z m 0,1 c 0.834352,0 1.499996,0.6657 1.5,1.5 -4e-6,0.8344 -0.665648,1.5 -1.5,1.5 -0.834351,0 -1.499996,-0.6656 -1.5,-1.5 4e-6,-0.8343 0.665649,-1.5 1.5,-1.5 z" color="#000" font-family="sans-serif" font-weight="400" overflow="visible"/><path fill="#ffffff" style="line-height:normal;text-indent:0;text-align:start;text-decoration-line:none;text-decoration-style:solid;text-decoration-color:#000;text-transform:none;block-progression:tb;isolation:auto;mix-blend-mode:normal" d="M 1.5722656,1030.3633 C 0.71031274,1030.3633 0,1031.0717 0,1031.9336 l 0,12.8574 c 0,0.862 0.7103689,1.5723 1.5722656,1.5723 l 19.8554684,0 C 22.289631,1046.3633 23,1045.653 23,1044.791 l 0,-12.8574 c 0,-0.8619 -0.710313,-1.5703 -1.572266,-1.5703 l -19.8554684,0 z m 0,1 19.8554684,0 c 0.325212,0 0.572266,0.245 0.572266,0.5703 l 0,12.8574 c 0,0.3253 -0.246998,0.5723 -0.572266,0.5723 l -19.8554684,0 C 1.2469976,1045.3633 1,1045.1163 1,1044.791 l 0,-12.8574 c 0,-0.3253 0.2470537,-0.5703 0.5722656,-0.5703 z" color="#000" font-family="sans-serif" font-weight="400" overflow="visible"/><path fill="#ffffff" style="line-height:normal;text-indent:0;text-align:start;text-decoration-line:none;text-decoration-style:solid;text-decoration-color:#000;text-transform:none;block-progression:tb;isolation:auto;mix-blend-mode:normal" d="m 11.5,1034.3633 c -2.2031666,0 -3.9999702,1.7968 -4,4 -3.32e-5,2.2032 1.7967893,4 4,4 2.203211,0 4.000033,-1.7968 4,-4 -3e-5,-2.2032 -1.796833,-4 -4,-4 z m 0,1 c 1.662732,0 2.999978,1.3372 3,3 2.5e-5,1.6627 -1.337234,3 -3,3 -1.6627653,0 -3.000025,-1.3373 -3,-3 2.25e-5,-1.6628 1.3372687,-3 3,-3 z" color="#000" font-family="sans-serif" font-weight="400" overflow="visible"/><path fill="#ffffff" fill-rule="evenodd" style="line-height:normal;text-indent:0;text-align:start;text-decoration-line:none;text-decoration-style:solid;text-decoration-color:#000;text-transform:none;block-progression:tb;isolation:auto;mix-blend-mode:normal" d="M16.5 1035.3613l0 1 2 0 0-1-2 0zM17.5 1037.8613l0 1 3 0 0-1-3 0zM16.5 1040.3613l0 1 2 0 0-1-2 0zM4.5 1035.3613l0 1 2 0 0-1-2 0zM2.5 1037.8613l0 1 3 0 0-1-3 0zM4.5 1040.3613l0 1 2 0 0-1-2 0z" color="#000" font-family="sans-serif" font-weight="400" overflow="visible"/></g></svg>