<svg xmlns="http://www.w3.org/2000/svg" width="32" height="20.002" viewBox="0 0 32 20.002">
  <g id="atm" transform="translate(0 -1026.358)">
    <path id="Path_10" data-name="Path 10" d="M8.572,1026.36A1.58,1.58,0,0,0,7,1027.93v3.045H8v-3.045a.561.561,0,0,1,.572-.572H30.428a.561.561,0,0,1,.572.572v12.857a.559.559,0,0,1-.572.57H22.66v1h7.768a1.579,1.579,0,0,0,1.572-1.57V1027.93a1.58,1.58,0,0,0-1.572-1.572H8.572Z" fill="#062f71"/>
    <path id="Path_11" data-name="Path 11" d="M7.5,1028.36v1H31v2H22.332v1H32v-4Zm15.973,6a2.445,2.445,0,0,0-.973.207l.4.918a1.458,1.458,0,0,1,.578-.125h.006a1.5,1.5,0,0,1,.928.414,2.45,2.45,0,0,0-.41,1.082h0a2.456,2.456,0,0,0,.42,1.109,1.463,1.463,0,0,1-1.557.25l-.422.906a2.5,2.5,0,0,0,2.934-.615l.291-.33-.291-.33a1.493,1.493,0,0,1,0-1.979l.291-.33-.291-.33a2.5,2.5,0,0,0-1.9-.85Z" fill="#062f71"/>
    <path id="Path_12" data-name="Path 12" d="M26.5,1034.36a2.5,2.5,0,1,0,2.5,2.5A2.508,2.508,0,0,0,26.5,1034.36Zm0,1a1.5,1.5,0,1,1-1.5,1.5A1.492,1.492,0,0,1,26.5,1035.36Z" fill="#062f71"/>
    <path id="Path_13" data-name="Path 13" d="M1.572,1030.36A1.58,1.58,0,0,0,0,1031.93v12.857a1.58,1.58,0,0,0,1.572,1.572H21.428A1.579,1.579,0,0,0,23,1044.79v-12.857a1.579,1.579,0,0,0-1.572-1.57H1.572Zm0,1H21.428a.559.559,0,0,1,.572.57v12.857a.561.561,0,0,1-.572.572H1.572a.556.556,0,0,1-.572-.57v-12.857a.559.559,0,0,1,.572-.57Z" fill="#01b9f1"/>
    <path id="Path_14" data-name="Path 14" d="M11.5,1034.36a4,4,0,1,0,4,4A4.008,4.008,0,0,0,11.5,1034.36Zm0,1a3,3,0,1,1-3,3A2.992,2.992,0,0,1,11.5,1035.36Z" fill="#01b9f1"/>
    <path id="Path_15" data-name="Path 15" d="M16.5,1035.36v1h2v-1Zm1,2.5v1h3v-1Zm-1,2.5v1h2v-1Zm-12-5v1h2v-1Zm-2,2.5v1h3v-1Zm2,2.5v1h2v-1Z" fill="#01b9f1" fill-rule="evenodd"/>
  </g>
</svg>
