<svg xmlns="http://www.w3.org/2000/svg" width="961.78" height="541.01" viewBox="0 0 961.78 541.01">
  <g id="Layer_x0020_1" transform="translate(-10.71 -34.77)">
    <path id="Path_16" data-name="Path 16" d="M70.81,34.77a60.311,60.311,0,0,0-60.1,60.11V515.66a60.317,60.317,0,0,0,60.12,60.12H912.38a60.315,60.315,0,0,0,60.11-60.12l-.01-420.78a60.315,60.315,0,0,0-60.12-60.11H70.81Zm0,30.05H912.36a29.668,29.668,0,0,1,30.06,30.06V515.66a29.662,29.662,0,0,1-30.06,30.06H70.81a29.672,29.672,0,0,1-30.05-30.06V94.88A29.672,29.672,0,0,1,70.81,64.82Zm90.18,30.06v15.03a74.918,74.918,0,0,1-75.15,75.14H70.81V425.49H85.84a74.924,74.924,0,0,1,75.15,75.14v15.03H822.2V500.63a74.924,74.924,0,0,1,75.15-75.14h15.03V185.04H897.35a74.9,74.9,0,0,1-75.15-75.13V94.88H160.99Zm27,30.06H383.35a210.247,210.247,0,0,0,0,360.66H187.99a102.981,102.981,0,0,0-87.12-87.11V212.06a102.992,102.992,0,0,0,87.12-87.12Zm303.01,0c99.96,0,180.93,80.7,180.93,180.33,0,99.67-80.97,180.33-180.93,180.33S311.26,405.05,311.26,305.27c0-99.73,79.77-180.33,179.74-180.33Zm107.49,0H795.2a102.992,102.992,0,0,0,87.12,87.12V398.49A102.981,102.981,0,0,0,795.2,485.6H599.08c61.49-36.8,102.91-103.76,102.91-180.33a15.184,15.184,0,0,0-1.17-5.87A210.882,210.882,0,0,0,598.49,124.94ZM417.28,185.05v.3h-.7v30.06h30.87c28.08,0,42.3,13.29,47.43,29.76H417.27v30.06h77.61c-5.13,16.47-19.36,29.76-47.43,29.76H416.58v30.06h8.04l92.68,90.44,20.96-21.48-72.5-70.79c32.93-6.67,54.12-31.09,59.94-58.01h41.04V245.16H525.71a74.517,74.517,0,0,0-14.38-30.06h55.41V185.04l-149.46.01ZM191.04,275.21a30.06,30.06,0,1,0,30.06,30.06A30.287,30.287,0,0,0,191.04,275.21Zm601.11,0a30.06,30.06,0,1,0,30.05,30.06A30.289,30.289,0,0,0,792.15,275.21Z" fill="#062f71" fill-rule="evenodd"/>
    <ellipse id="Ellipse_1" data-name="Ellipse 1" cx="195.37" cy="194.53" rx="195.37" ry="194.53" transform="translate(296.21 110.8)" fill="none" stroke="#32b6e4" stroke-miterlimit="22.926" stroke-width="30"/>
  </g>
</svg>
