<svg xmlns="http://www.w3.org/2000/svg" width="46" height="26.008" viewBox="0 0 46 26.008">
  <g id="money-transfer" transform="translate(-1 -10.996)">
    <path id="Path_16" data-name="Path 16" d="M24,11A13,13,0,1,0,37,24,13.015,13.015,0,0,0,24,11Zm0,24A11,11,0,1,1,35,24,11.013,11.013,0,0,1,24,35Z" fill="#01b9f1"/>
    <path id="Path_17" data-name="Path 17" d="M23.9,19.011a.94.94,0,0,0,.1.021h0a.941.941,0,0,0,.1-.021A2,2,0,0,1,26,21a1,1,0,1,0,2,0,4,4,0,0,0-3-3.858V16a1,1,0,0,0-1-1h0a1,1,0,0,0-1,1v1.142A3.991,3.991,0,0,0,24,25a2,2,0,1,1-2,2,1,1,0,0,0-2,0,4,4,0,0,0,3,3.858v1.173a1,1,0,0,0,1,1h0a1,1,0,0,0,1-1V30.859A3.992,3.992,0,0,0,24,23a2,2,0,0,1-.1-3.99Z" fill="#01b9f1"/>
    <path id="Path_18" data-name="Path 18" d="M46.707,14.3l-3-3a1,1,0,0,0-1.414,0l-3,3a1,1,0,0,0,1.414,1.414L42,14.418V32a3,3,0,0,1-3,3H35a1,1,0,0,0,0,2h4a5.006,5.006,0,0,0,5-5V14.418l1.293,1.293A1,1,0,0,0,46.707,14.3ZM13,11H9a5.006,5.006,0,0,0-5,5V33.582L2.707,32.289A1,1,0,0,0,1.293,33.7l3,3a1,1,0,0,0,1.414,0l3-3a1,1,0,0,0-1.414-1.414L6,33.582V16a3,3,0,0,1,3-3h4a1,1,0,0,0,0-2Z" fill="#062f71"/>
  </g>
</svg>
