<svg xmlns="http://www.w3.org/2000/svg" enable-background="new 0 0 48 48" viewBox="0 0 48 48"><path fill="#ffffff" d="M23.999,10.996c-7.168,0-13,5.832-13,13s5.832,13,13,13s13-5.832,13-13S31.167,10.996,23.999,10.996z    M23.999,34.996c-6.065,0-11-4.935-11-11s4.935-11,11-11s11,4.935,11,11S30.064,34.996,23.999,34.996z"/><path fill="#ffffff" d="M23.898,19.011c0.036,0.004,0.067,0.021,0.103,0.021h0c0.036,0,0.067-0.017,0.103-0.021   C25.158,19.067,26,19.934,26,21.001c0,0.553,0.448,1,1,1s1-0.447,1-1c0-1.858-1.279-3.41-2.999-3.858L25,16.001   c0-0.553-0.448-1-1-1h0c-0.552,0-1,0.448-1,1l0.001,1.142C21.28,17.59,20,19.142,20,21.001c0,2.206,1.794,4,4,4   c1.103,0,2,0.897,2,2s-0.897,2-2,2s-2-0.897-2-2c0-0.553-0.448-1-1-1s-1,0.447-1,1c0,1.859,1.28,3.411,3,3.858l0.001,1.173   c0,0.553,0.448,1,1,1h0c0.552,0,1-0.448,1-1L25,30.859c1.72-0.447,3-1.999,3-3.858c0-2.206-1.794-4-4-4c-1.103,0-2-0.897-2-2   C22,19.934,22.843,19.066,23.898,19.011z"/><path fill="#ffffff" d="M46.707 14.297l-3-3c-.391-.391-1.023-.391-1.414 0l-3 3c-.391.391-.391 1.023 0 1.414s1.023.391 1.414 0L42 14.418v17.586c0 1.654-1.346 3-3 3h-4c-.552 0-1 .447-1 1s.448 1 1 1h4c2.757 0 5-2.243 5-5V14.418l1.293 1.293c.195.195.451.293.707.293s.512-.098.707-.293C47.098 15.32 47.098 14.688 46.707 14.297zM13 10.996H9c-2.757 0-5 2.243-5 5v17.586l-1.293-1.293c-.391-.391-1.023-.391-1.414 0s-.391 1.023 0 1.414l3 3C4.488 36.898 4.744 36.996 5 36.996s.512-.098.707-.293l3-3c.391-.391.391-1.023 0-1.414s-1.023-.391-1.414 0L6 33.582V15.996c0-1.654 1.346-3 3-3h4c.552 0 1-.447 1-1S13.552 10.996 13 10.996z"/></svg>