<svg xmlns="http://www.w3.org/2000/svg" width="28.001" height="26" viewBox="0 0 28.001 26">
  <g id="prepaid" transform="translate(-2 -3)">
    <path id="Path_19" data-name="Path 19" d="M20.5,3h-9A2.5,2.5,0,0,0,9,5.5v21A2.5,2.5,0,0,0,11.5,29h9A2.5,2.5,0,0,0,23,26.5V5.5A2.5,2.5,0,0,0,20.5,3Zm-9,1h9A1.5,1.5,0,0,1,22,5.5V7H10V5.5A1.5,1.5,0,0,1,11.5,4ZM22,23H10V8H22Zm-1.5,5h-9A1.5,1.5,0,0,1,10,26.5V24H22v2.5A1.5,1.5,0,0,1,20.5,28Z" fill="#062f71"/>
    <path id="Path_20" data-name="Path 20" d="M15,6h2a.5.5,0,0,0,0-1H15a.5.5,0,0,0,0,1Z" fill="#01b9f1"/>
    <circle id="Ellipse_1" data-name="Ellipse 1" cx="1" cy="1" r="1" transform="translate(15 25)" fill="#01b9f1"/>
    <path id="Path_21" data-name="Path 21" d="M7.156,9.817A.5.5,0,0,0,6.474,10a11,11,0,0,0,0,11,.5.5,0,1,0,.866-.5,10,10,0,0,1,0-10,.5.5,0,0,0-.183-.683Zm-2.6-1.5a.5.5,0,0,0-.683.183,14,14,0,0,0,0,14,.5.5,0,1,0,.865-.5,13,13,0,0,1,0-13,.5.5,0,0,0-.182-.683Zm20.285,1.5a.5.5,0,0,0-.183.683,10,10,0,0,1,0,10,.5.5,0,1,0,.866.5,11,11,0,0,0,0-11,.5.5,0,0,0-.682-.183ZM28.124,8.5a.5.5,0,1,0-.865.5,13,13,0,0,1,0,13,.5.5,0,1,0,.866.5,13.994,13.994,0,0,0,0-14Z" fill="#01b9f1"/>
  </g>
</svg>
