<svg xmlns="http://www.w3.org/2000/svg" width="26.999" height="27.483" viewBox="0 0 26.999 27.483">
  <g id="travel" transform="translate(214.499 4.638)">
    <path id="Path_22" data-name="Path 22" d="M-208,.843a.5.5,0,0,0-.5.5V3.179a.5.5,0,0,0,.5.5.5.5,0,0,0,.5-.5V1.843h1V3.179a.5.5,0,0,0,.5.5.5.5,0,0,0,.5-.5V1.343a.5.5,0,0,0-.5-.5h-2Zm-1.8,11a1.727,1.727,0,0,0-1.7,1.738v6.857a.5.5,0,0,0,.5.5.5.5,0,0,0,.5-.5V13.581a.708.708,0,0,1,.7-.738h5.6a.707.707,0,0,1,.7.738v6.857a.5.5,0,0,0,.5.5.5.5,0,0,0,.5-.5V13.581a1.726,1.726,0,0,0-1.7-1.738h-5.6Zm.924-6A1.633,1.633,0,0,0-210.5,7.468V9.335a.5.5,0,0,0,.5.5.5.5,0,0,0,.5-.5V7.468a.613.613,0,0,1,.625-.625h3.75a.613.613,0,0,1,.625.625V9.335a.5.5,0,0,0,.5.5.5.5,0,0,0,.5-.5V7.468a1.633,1.633,0,0,0-1.625-1.625Z" fill="#01b9f1" fill-rule="evenodd"/>
    <path id="Path_23" data-name="Path 23" d="M-197,7.843a.5.5,0,0,0-.5.5v2a.5.5,0,0,0,.5.5.5.5,0,0,0,.5-.5v-1.5h3v1.5a.5.5,0,0,0,.5.5.5.5,0,0,0,.5-.5v-2a.5.5,0,0,0-.5-.5Zm-.129-12.479-.07.006-.295.043.145.99.27-.039,1.133,0,.447.064.141-.99-.475-.068-.07-.006Zm-2.477.531-.066.025-.818.371.414.91.781-.355,1.027-.3-.281-.959Zm5.018.691.869.256.932.422.414-.91-.957-.436L-193.4-4.1l-.91-.268Zm-7.23.5-.057.041-.908.775-.049.049-.219.246.75.662.191-.217.861-.734.369-.234-.535-.844Zm9.822.668.248.156.85.727.3.336.75-.662-.318-.361-.051-.049-.9-.771-.055-.041-.281-.178ZM-204.345-.067l.836.547.6-.92-.836-.547Zm14.332-.246.486.736.443.947.906-.426-.461-.979-.035-.062-.506-.768Zm1.215,2.566.1.318.172,1.117,0,.393,1-.01,0-.43-.006-.07-.184-1.191-.016-.07-.107-.35Zm.139,3.666-.268.977.963.266.277-1.01.016-.068.121-.945-.992-.127Zm-.744,2.113-.588.959-.275.33.77.641.295-.355.041-.059.631-1.025.031-.064.133-.307-.916-.4Z" fill="#062f71"/>
    <path id="Path_24" data-name="Path 24" d="M-210.237-2.157v1h6.473v-1Z" fill="#01b9f1" fill-rule="evenodd"/>
    <path id="Path_25" data-name="Path 25" d="M-209.626-4.161a.91.91,0,0,0-.875.934V3.23a.5.5,0,0,0,.5.5.5.5,0,0,0,.5-.5V-3.161h5V3.23a.5.5,0,0,0,.5.5.5.5,0,0,0,.5-.5V-3.227a.91.91,0,0,0-.875-.934h-5.25Z" fill="#01b9f1" fill-rule="evenodd"/>
    <path id="Path_26" data-name="Path 26" d="M-199.983,9.843a.5.5,0,0,0-.5.5.5.5,0,0,0,.5.5H-188.5v8h-11.482a.5.5,0,0,0-.5.5.5.5,0,0,0,.5.5H-188a.5.5,0,0,0,.5-.5v-9a.5.5,0,0,0-.5-.5Z" fill="#01b9f1"/>
    <path id="Path_27" data-name="Path 27" d="M-188.009,11.835a.5.5,0,0,0-.492.508,1.486,1.486,0,0,1-1.5,1.5h-3.928a.5.5,0,0,0-.5.5.5.5,0,0,0,.5.5H-190a2.506,2.506,0,0,0,2.5-2.5.5.5,0,0,0-.146-.361.5.5,0,0,0-.361-.146ZM-200,13.843a.5.5,0,0,0-.5.5.5.5,0,0,0,.5.5h3.889a.5.5,0,0,0,.5-.5.5.5,0,0,0-.5-.5Z" fill="#01b9f1"/>
    <path id="Path_28" data-name="Path 28" d="M-211.374,20.11a1.379,1.379,0,0,0-1.375,1.367,1.379,1.379,0,0,0,1.375,1.367A1.379,1.379,0,0,0-210,21.478,1.379,1.379,0,0,0-211.374,20.11Zm0,1a.364.364,0,0,1,.375.367.364.364,0,0,1-.375.367.364.364,0,0,1-.375-.367A.364.364,0,0,1-211.374,21.11Zm8.746-1A1.379,1.379,0,0,0-204,21.478a1.379,1.379,0,0,0,1.375,1.367,1.379,1.379,0,0,0,1.375-1.367A1.379,1.379,0,0,0-202.628,20.11Zm0,1a.364.364,0,0,1,.375.367.364.364,0,0,1-.375.367.364.364,0,0,1-.375-.367A.364.364,0,0,1-202.628,21.11ZM-214,8.843v1h14v-1Z" fill="#2b4255" fill-rule="evenodd"/>
    <path id="Path_29" data-name="Path 29" d="M-212.6,2.774a1.859,1.859,0,0,0-1.9,1.8V19.312a1.857,1.857,0,0,0,1.9,1.8h11.2a1.857,1.857,0,0,0,1.9-1.8V4.575a1.859,1.859,0,0,0-1.9-1.8h-11.2Zm0,1h11.2a.844.844,0,0,1,.9.8V19.312a.843.843,0,0,1-.9.8h-11.2a.843.843,0,0,1-.9-.8V4.575a.844.844,0,0,1,.9-.8Z" fill="#062f71" fill-rule="evenodd"/>
    <path id="Path_30" data-name="Path 30" d="M-211.374,13.843v1h8.746v-1Z" fill="#01b9f1" fill-rule="evenodd"/>
    <path id="Path_31" data-name="Path 31" d="M-205.5,14.11v1.732h1V14.11h-1Z" fill="#01b9f1" fill-rule="evenodd"/>
    <path id="Path_32" data-name="Path 32" d="M-196,12.843a.5.5,0,0,0-.5.5v2a.5.5,0,0,0,.5.5h2a.5.5,0,0,0,.5-.5v-2a.5.5,0,0,0-.5-.5Zm.5,1h1v1h-1Z" fill="#062f71"/>
  </g>
</svg>
