<svg xmlns="http://www.w3.org/2000/svg" width="32" height="32" viewBox="0 0 32 32"><g transform="translate(217 6.638)"><path fill="#ffffff" fill-rule="evenodd" d="M-208.00101.84284a.50005.50005 0 0 0-.5.5l0 1.83593a.50005.50005 0 1 0 1 0l0-1.33593 1 0 0 1.33593a.50005.50005 0 1 0 1 0l0-1.83593a.50005.50005 0 0 0-.5-.5l-2 0zM-209.79984 11.84284c-.94186 0-1.70117.79192-1.70117 1.73828l0 6.85742a.50004994.50004994 0 1 0 1 0l0-6.85742c0-.42664.31348-.73829.70117-.73828l5.59961 0c.3877 0 .69922.31164.69922.73828l0 6.85742a.50004994.50004994 0 1 0 1 0l0-6.85742c0-.94636-.75735-1.73829-1.69922-1.73828l-5.59961 0zM-208.87601 5.84284c-.8916-.00001-1.625.73356-1.625 1.625l0 1.86718a.50004997.50004997 0 1 0 1 0l0-1.86718c0-.35457.2702-.625.625-.625l3.75 0c.3548 0 .625.27043.625.625l0 1.86718a.50004997.50004997 0 1 0 1 0l0-1.86718c0-.89144-.7334-1.62501-1.625-1.625l-3.75 0z" color="#000" font-family="sans-serif" font-weight="400" overflow="visible" style="line-height:normal;text-indent:0;text-align:start;text-decoration-line:none;text-decoration-style:solid;text-decoration-color:#000;text-transform:none;block-progression:tb;isolation:auto;mix-blend-mode:normal"/><path fill="#ffffff" d="M-197.00101 7.84284a.50004985.50004985 0 0 0-.5.5l0 2a.50004985.50004985 0 1 0 1 0l0-1.5 3 0 0 1.5a.50004985.50004985 0 1 0 1 0l0-2a.50004985.50004985 0 0 0-.5-.5l-4 0zM-197.12992-4.63568l-.0703.006-.29492.043.14453.99023.26954-.0391 1.13281-.002.44726.0644.14063-.99024-.47461-.0684-.0703-.006zm-2.47656.53125l-.0664.0254-.81836.37109.41406.91016.78125-.35547 1.02735-.30273-.28125-.95899zm5.01758.69141l.86914.25586.93164.42187.41406-.91016-.95703-.43554-.0664-.0234-.91015-.26758zm-7.23047.49609l-.0566.041-.9082.7754-.0488.0488-.21875.2461.75.66211.1914-.2168.86133-.73437.36914-.23438-.53515-.84375zm9.82227.66797l.24804.15625.84961.72656.29883.33594.75-.66211-.31836-.36133-.0508-.0488-.9043-.77148-.0547-.041-.28125-.17773zm-12.34766 2.18164l.83594.54687.60351-.91992-.83593-.54687zm14.33203-.2461l.48633.73633.44336.94727.90625-.42578-.46094-.97852-.0352-.0625-.50586-.76758zm1.21485 2.56641l.0977.31836.17187 1.11719.004.39258 1-.01-.004-.42969-.006-.0703-.18359-1.19141-.0156-.0703-.10743-.34961zm.13867 3.66602l-.26758.97656.96289.26562.27734-1.00976.0156-.0684.1211-.94531-.99219-.12696zm-.74414 2.11328l-.58789.95898-.27539.33008.76953.64063.29492-.35547.041-.0586.63086-1.02539.0312-.0645.13281-.30664-.91602-.39649z" color="#000" font-family="sans-serif" font-weight="400" overflow="visible" style="line-height:normal;text-indent:0;text-align:start;text-decoration-line:none;text-decoration-style:solid;text-decoration-color:#000;text-transform:none;block-progression:tb;isolation:auto;mix-blend-mode:normal"/><path fill="#ffffff" fill-rule="evenodd" d="m -210.23734,-2.15716 0,1 6.47266,0 0,-1 -6.47266,0 z" color="#000" font-family="sans-serif" font-weight="400" overflow="visible" style="line-height:normal;text-indent:0;text-align:start;text-decoration-line:none;text-decoration-style:solid;text-decoration-color:#000;text-transform:none;block-progression:tb;isolation:auto;mix-blend-mode:normal"/><path fill="#ffffff" fill-rule="evenodd" d="m -209.62601,-4.16107 c -0.51792,0 -0.875,0.46133 -0.875,0.93359 l 0,6.45703 a 0.50005,0.50005 0 1 0 1,0 l 0,-6.39062 0.60352,0 3.66796,0 0.72852,0 0,6.39062 a 0.50005,0.50005 0 1 0 1,0 l 0,-6.45703 c 0,-0.47226 -0.35708,-0.93359 -0.875,-0.93359 l -0.85352,0 -3.66796,0 -0.72852,0 z" color="#000" font-family="sans-serif" font-weight="400" overflow="visible" style="line-height:normal;text-indent:0;text-align:start;text-decoration-line:none;text-decoration-style:solid;text-decoration-color:#000;text-transform:none;block-progression:tb;isolation:auto;mix-blend-mode:normal"/><path fill="#ffffff" d="m -199.98343,9.84284 a 0.50004985,0.50004985 0 1 0 0,1 l 11.48242,0 0,8 -11.48242,0 a 0.50004985,0.50004985 0 1 0 0,1 l 11.98242,0 a 0.50004985,0.50004985 0 0 0 0.5,-0.5 l 0,-9 a 0.50004985,0.50004985 0 0 0 -0.5,-0.5 l -11.98242,0 z" color="#000" font-family="sans-serif" font-weight="400" overflow="visible" style="line-height:normal;text-indent:0;text-align:start;text-decoration-line:none;text-decoration-style:solid;text-decoration-color:#000;text-transform:none;block-progression:tb;isolation:auto;mix-blend-mode:normal"/><path fill="#ffffff" d="m -188.00882,11.83502 a 0.50004985,0.50004985 0 0 0 -0.49219,0.50782 c 0,0.83964 -0.66034,1.5 -1.5,1.5 l -3.92773,0 a 0.50004985,0.50004985 0 1 0 0,1 l 3.92773,0 c 1.37636,0 2.5,-1.12365 2.5,-2.5 a 0.50004985,0.50004985 0 0 0 -0.50781,-0.50782 z m -11.99219,2.00782 a 0.50004985,0.50004985 0 1 0 0,1 l 3.88867,0 a 0.50004985,0.50004985 0 1 0 0,-1 l -3.88867,0 z" color="#000" font-family="sans-serif" font-weight="400" overflow="visible" style="line-height:normal;text-indent:0;text-align:start;text-decoration-line:none;text-decoration-style:solid;text-decoration-color:#000;text-transform:none;block-progression:tb;isolation:auto;mix-blend-mode:normal"/><path fill="#ffffff" fill-rule="evenodd" d="M-211.37406 20.11041c-.75087 0-1.375.61578-1.375 1.36719.00001.75141.62413 1.36719 1.375 1.36719.75087 0 1.375-.61578 1.375-1.36719.00001-.75141-.62412-1.36719-1.375-1.36719zm0 1c.2153 0 .375.16112.375.36719 0 .20607-.1597.36719-.375.36719-.21529 0-.37499-.16112-.375-.36719 0-.20607.15971-.36719.375-.36719zM-202.62796 20.11041c-.75088 0-1.37501.61578-1.375 1.36719 0 .75141.62413 1.36719 1.375 1.36719.75087 0 1.37499-.61578 1.375-1.36719 0-.75141-.62413-1.36719-1.375-1.36719zm0 1c.21529 0 .375.16112.375.36719 0 .20607-.15971.36719-.375.36719-.2153 0-.375-.16112-.375-.36719 0-.20607.1597-.36719.375-.36719zM-213.99906 8.84284l0 1 13.9961 0 0-1-13.9961 0z" color="#000" font-family="sans-serif" font-weight="400" overflow="visible" style="line-height:normal;text-indent:0;text-align:start;text-decoration-line:none;text-decoration-style:solid;text-decoration-color:#000;text-transform:none;block-progression:tb;isolation:auto;mix-blend-mode:normal"/><path fill="#ffffff" fill-rule="evenodd" d="m -212.59867,2.77448 c -1.02465,0 -1.90039,0.7916 -1.90039,1.80078 l 0,14.73632 c 0,1.00918 0.87574,1.79883 1.90039,1.79883 l 11.19532,0 c 1.02465,0 1.90039,-0.78965 1.90039,-1.79883 l 0,-14.73632 c 0,-1.00918 -0.87574,-1.80078 -1.90039,-1.80078 l -11.19532,0 z m 0,1 11.19532,0 c 0.52601,0 0.90039,0.36928 0.90039,0.80078 l 0,14.73632 c 0,0.43151 -0.37438,0.79883 -0.90039,0.79883 l -11.19532,0 c -0.52601,0 -0.90039,-0.36732 -0.90039,-0.79883 l 0,-14.73632 c 0,-0.4315 0.37438,-0.80078 0.90039,-0.80078 z" color="#000" font-family="sans-serif" font-weight="400" overflow="visible" style="line-height:normal;text-indent:0;text-align:start;text-decoration-line:none;text-decoration-style:solid;text-decoration-color:#000;text-transform:none;block-progression:tb;isolation:auto;mix-blend-mode:normal"/><path fill="#ffffff" fill-rule="evenodd" d="m -211.37406,13.84284 0,1 8.7461,0 0,-1 -8.7461,0 z" color="#000" font-family="sans-serif" font-weight="400" overflow="visible" style="line-height:normal;text-indent:0;text-align:start;text-decoration-line:none;text-decoration-style:solid;text-decoration-color:#000;text-transform:none;block-progression:tb;isolation:auto;mix-blend-mode:normal"/><path fill="#ffffff" fill-rule="evenodd" d="m -205.50101,14.11041 0,1.73243 1,0 0,-1.73243 -1,0 z" color="#000" font-family="sans-serif" font-weight="400" overflow="visible" style="line-height:normal;text-indent:0;text-align:start;text-decoration-line:none;text-decoration-style:solid;text-decoration-color:#000;text-transform:none;block-progression:tb;isolation:auto;mix-blend-mode:normal"/><path fill="#ffffff" d="m -196.00101,12.84284 a 0.50004985,0.50004985 0 0 0 -0.5,0.5 l 0,2 a 0.50004985,0.50004985 0 0 0 0.5,0.5 l 2,0 a 0.50004985,0.50004985 0 0 0 0.5,-0.5 l 0,-2 a 0.50004985,0.50004985 0 0 0 -0.5,-0.5 l -2,0 z m 0.5,1 1,0 0,1 -1,0 0,-1 z" color="#000" font-family="sans-serif" font-weight="400" overflow="visible" style="line-height:normal;text-indent:0;text-align:start;text-decoration-line:none;text-decoration-style:solid;text-decoration-color:#000;text-transform:none;block-progression:tb;isolation:auto;mix-blend-mode:normal"/></g></svg>