<svg xmlns="http://www.w3.org/2000/svg" width="2077.144" height="38.885" viewBox="0 0 2077.144 38.885">
  <g id="Group_101297" data-name="Group 101297" transform="translate(1 -726.115)">
    <rect id="Rectangle_4" data-name="Rectangle 4" width="2077" height="30" transform="translate(-1 735)" fill="#004886"/>
    <g id="Group_101192" data-name="Group 101192" transform="translate(0 -43)">
      <g id="Group_101190" data-name="Group 101190">
        <g id="Group_101188" data-name="Group 101188">
          <g id="Group_101186" data-name="Group 101186" transform="translate(-175.724 474.41)">
            <path id="Path_9140" data-name="Path 9140" d="M212.36,300.911a2.889,2.889,0,0,0,.565.074,1.674,1.674,0,0,0,.261-.014,1.755,1.755,0,0,0,1.518-1.963c-.008-.041-.018-.082-.029-.122a1.566,1.566,0,0,0-1.929-1.085c-1.179.163-1.6.641-1.553,1.758C211.239,300.547,211.371,300.707,212.36,300.911Z" transform="translate(-8.514 -0.729)" fill="#004886"/>
            <path id="Path_9141" data-name="Path 9141" d="M192.012,300.82a3.579,3.579,0,0,0,1.424-.375,1.141,1.141,0,0,0,.734-1.17c-.005-1.227-.971-1.648-2.122-1.56a1.643,1.643,0,0,0-1.473,1.736C190.682,300.471,191.074,300.844,192.012,300.82Z" transform="translate(-3.565 -0.72)" fill="#004886"/>
            <path id="Path_9142" data-name="Path 9142" d="M288.527,300.776a1.346,1.346,0,0,0,1.536-1.537,1.645,1.645,0,0,0,0-.229,1.747,1.747,0,0,0-1.885-1.6l-.057,0a1.268,1.268,0,0,0-1.31,1.223C286.8,299.563,287.768,300.767,288.527,300.776Z" transform="translate(-26.667 -0.648)" fill="#004886"/>
            <path id="Path_9143" data-name="Path 9143" d="M321.921,302.652a1.281,1.281,0,0,0,1.549-.939,2.339,2.339,0,0,0-.968-2.326,1.1,1.1,0,0,0-1.5.042,1.482,1.482,0,0,0-.457,1.23,2.644,2.644,0,0,0,.682,1.548A1.284,1.284,0,0,0,321.921,302.652Z" transform="translate(-34.764 -1.057)" fill="#004886"/>
            <path id="Path_9144" data-name="Path 9144" d="M271.18,299.889c1.058-.033,1.711-.53,1.7-1.291a2.357,2.357,0,0,0-1.964-1.936c-.668.017-1.3.888-1.289,1.784a1.53,1.53,0,0,0,.007.186A1.41,1.41,0,0,0,271.18,299.889Z" transform="translate(-22.543 -0.47)" fill="#004886"/>
            <path id="Path_9145" data-name="Path 9145" d="M232.79,301.5c.876.016,1.733-.539,1.761-1.135a1.825,1.825,0,0,0-1.565-1.562c-1-.025-1.733.539-1.733,1.337A1.493,1.493,0,0,0,232.79,301.5Z" transform="translate(-13.33 -0.982)" fill="#004886"/>
            <path id="Path_9146" data-name="Path 9146" d="M338.061,301.923a1.273,1.273,0,0,0,1.161-1.141,1.957,1.957,0,0,0-1.8-1.945c-.03,0-.059,0-.09,0a1,1,0,0,0-.967,1.034A2.044,2.044,0,0,0,338.061,301.923Z" transform="translate(-38.565 -0.991)" fill="#004886"/>
            <path id="Path_9147" data-name="Path 9147" d="M305.494,301.065a1.186,1.186,0,0,0,1.2-1.053,2.524,2.524,0,0,0-1.663-1.838,1.26,1.26,0,0,0-1.239,1.233A1.731,1.731,0,0,0,305.494,301.065Z" transform="translate(-30.745 -0.833)" fill="#004886"/>
            <path id="Path_9148" data-name="Path 9148" d="M253.317,299.961a1.323,1.323,0,0,0,1.2-1.332,1.468,1.468,0,0,0-1.288-1.481,1.5,1.5,0,0,0-1.375,1.35A1.757,1.757,0,0,0,253.317,299.961Z" transform="translate(-18.277 -0.587)" fill="#004886"/>
            <path id="Path_9149" data-name="Path 9149" d="M434.086,299.007c-.692-.929-1.384-1.859-2.081-2.781a2.814,2.814,0,0,0-.41-.391.748.748,0,0,0-1.169.056c-2.29,2.132-4.329,4.507-6.559,6.7a1.624,1.624,0,0,1-.989.453,2.665,2.665,0,0,1-2.749-1.363c-1.256-1.718-2.794-3.22-3.95-5.021-.021-.033-.043-.063-.064-.095-1.075-1.638-1.217-1.1-2.08-.163-.5.542-1.148.954-1.627,1.492-.62.7-1.319,1.317-1.916,2.034-.768.923-1.548,1.835-2.318,2.757a1.216,1.216,0,0,1-.889.416,2.218,2.218,0,0,1-2.373-1.129c-.692-1.112-1.567-2.108-2.252-3.231-.739-1.209-1.744-2.214-2.54-3.379-.3-.441-.588-.113-.793.1-.8.841-1.607,1.681-2.353,2.571-1.211,1.443-2.378,2.924-3.563,4.391a1.07,1.07,0,0,1-.745.486c-.721.049-1.445.078-2.167.116-.249.013-.366-.144-.483-.334-.834-1.36-1.666-2.719-2.515-4.072a14.36,14.36,0,0,0-2.372-3.133c-.385-.35-.625-.3-.913.085a22.683,22.683,0,0,1-2.98,3.137,48.369,48.369,0,0,0-3.486,3.831,1.2,1.2,0,0,1-1.882.019c-1.026-1.1-1.488-2.575-2.461-3.7s-1.5-2.52-2.425-3.666c-.518-.641-.582-.655-1.048.028a38.95,38.95,0,0,1-4.475,5.1c-.582.6-1.079,1.274-1.629,1.909a1.5,1.5,0,0,1-2.118-.117c-.018-.021-.036-.041-.053-.063-1.224-1.864-2.249-3.845-3.386-5.758a2.56,2.56,0,0,0-.264-.373c-.46-.532-.614-.516-1.149-.055a29.863,29.863,0,0,0-2.473,2.916c-1.032,1.145-2.081,2.276-3.12,3.415a.622.622,0,0,1-.612.21,5.764,5.764,0,0,0-1.767,0,.607.607,0,0,1-.644-.257,26.233,26.233,0,0,1-2.116-3.38c-.43-.8-.808-1.641-1.306-2.406-.334-.509-.5-.55-.933-.14a62.508,62.508,0,0,0-4.389,4.575c-.6.692-1.173,1.4-1.774,2.092a3.744,3.744,0,0,1-2.218.464c-.2-.085-.251-.276-.324-.448a50.088,50.088,0,0,0-3.135-6.158c-.258-.427-.62-.425-1.073.043-.914.945-1.827,1.891-2.714,2.86a36.5,36.5,0,0,0-3.03,3.5,1.27,1.27,0,0,1-1.112.57c-2.195.008-1.957.026-2.638-1.74-.546-1.42-1.138-2.822-1.711-4.231a.794.794,0,0,0-.054-.1c-.678-1.216-1.051-1.26-2.032-.3a53.083,53.083,0,0,0-5.186,5.707c-.565.741-1.295.587-2,.659-.228.022-.328-.223-.419-.418-.761-1.62-1.561-3.219-2.184-4.9-.608-1.644-.906-1.771-2.1-.79-1.189-.981-1.487-.855-2.1.79-.623,1.683-1.423,3.281-2.183,4.9-.091.195-.191.44-.419.418-.709-.072-1.439.082-2-.659a53.066,53.066,0,0,0-5.185-5.707c-.982-.957-1.355-.913-2.033.3a.906.906,0,0,0-.054.1c-.573,1.41-1.164,2.812-1.711,4.231-.681,1.766-.443,1.748-2.638,1.74a1.269,1.269,0,0,1-1.111-.57,36.62,36.62,0,0,0-3.031-3.5c-.888-.97-1.8-1.916-2.714-2.86-.452-.468-.815-.47-1.073-.043a50.19,50.19,0,0,0-3.134,6.158c-.074.172-.122.362-.325.448a3.745,3.745,0,0,1-2.218-.464c-.6-.688-1.176-1.4-1.774-2.092a62.83,62.83,0,0,0-4.389-4.575c-.435-.41-.6-.369-.933.14-.5.764-.877,1.6-1.307,2.406a26.3,26.3,0,0,1-2.116,3.38.608.608,0,0,1-.645.257,5.759,5.759,0,0,0-1.766,0,.621.621,0,0,1-.612-.21c-1.04-1.139-2.089-2.27-3.121-3.415a29.868,29.868,0,0,0-2.473-2.916c-.535-.461-.689-.476-1.148.055a2.567,2.567,0,0,0-.264.373c-1.138,1.913-2.162,3.894-3.386,5.758-.017.022-.035.043-.053.063a1.5,1.5,0,0,1-2.117.117c-.55-.635-1.047-1.311-1.629-1.909a38.944,38.944,0,0,1-4.475-5.1c-.467-.683-.531-.669-1.048-.028-.924,1.146-1.452,2.537-2.425,3.666s-1.436,2.6-2.461,3.7a1.2,1.2,0,0,1-1.883-.019,48.211,48.211,0,0,0-3.486-3.831,22.73,22.73,0,0,1-2.98-3.137c-.289-.382-.528-.435-.913-.085a14.361,14.361,0,0,0-2.373,3.133c-.85,1.353-1.682,2.712-2.515,4.072-.116.19-.233.347-.483.334-.722-.038-1.446-.067-2.167-.116a1.071,1.071,0,0,1-.745-.486c-1.184-1.467-2.351-2.948-3.563-4.391-.746-.89-1.552-1.73-2.353-2.571-.205-.215-.492-.543-.793-.1-.8,1.165-1.8,2.17-2.54,3.379-.685,1.123-1.559,2.119-2.252,3.231a2.217,2.217,0,0,1-2.373,1.129,1.217,1.217,0,0,1-.89-.416c-.77-.922-1.55-1.835-2.317-2.757-.6-.717-1.3-1.335-1.917-2.034-.479-.539-1.126-.951-1.627-1.492-.862-.935-1.005-1.476-2.08.163-.021.032-.043.062-.064.095-1.156,1.8-2.694,3.3-3.95,5.021a2.664,2.664,0,0,1-2.749,1.363,1.624,1.624,0,0,1-.989-.453c-2.23-2.19-4.269-4.565-6.558-6.7a.775.775,0,0,0-.114-.125.749.749,0,0,0-1.056.069,2.806,2.806,0,0,0-.409.391c-.7.923-1.389,1.853-2.081,2.781a13.986,13.986,0,0,1-1.782,2.083l.062,3.661c1.961,0,3.921.011,5.883.007.34,0,.682-.021,1.024-.052a18.492,18.492,0,0,1,3.075-.15,23.354,23.354,0,0,0,2.738.093,13.6,13.6,0,0,1,1.65-.069,30.518,30.518,0,0,0,3.837.135,105.827,105.827,0,0,1,12.906.109c1.447.122,2.9.067,4.342.114a22.353,22.353,0,0,0,4.451-.178,26.411,26.411,0,0,1,6.785-.177c3.279.3,6.549-.053,9.818-.027,1.077.008,2.157.1,3.233.028.992-.069,1.978.1,2.965.005,1.309-.12,2.615-.268,3.933-.259,1.581.012,3.17.1,4.742-.02a23.721,23.721,0,0,1,4.1-.16c1.353.126,2.7-.117,4.053-.106,1.223.01,2.444.06,3.655-.048a19.728,19.728,0,0,1,3.248.069,47.151,47.151,0,0,0,5.92.371,44.191,44.191,0,0,1,4.736.208,8.807,8.807,0,0,0,1.428.1,20.361,20.361,0,0,1,3.25.092,74.745,74.745,0,0,0,8.053.236c.7-.03,1.408-.047,2.113-.066,2.516-.07,5.026.213,7.545.139,1.5-.044,3-.011,4.506.016,1.388.024,2.775.063,4.164.061v.037c.271-.028.544-.031.816-.046.347-.021.695-.036,1.043-.037s.7.016,1.043.037c.272.015.545.018.816.046v-.037c1.389,0,2.776-.036,4.164-.061,1.5-.027,3.006-.06,4.506-.016,2.519.074,5.028-.209,7.545-.139.7.019,1.409.036,2.113.066a74.73,74.73,0,0,0,8.052-.236,20.364,20.364,0,0,1,3.25-.092,8.807,8.807,0,0,0,1.428-.1,44.2,44.2,0,0,1,4.736-.208,47.142,47.142,0,0,0,5.92-.371,19.737,19.737,0,0,1,3.249-.069c1.21.108,2.431.058,3.654.048,1.353-.011,2.7.232,4.053.106a23.721,23.721,0,0,1,4.1.16c1.572.125,3.161.032,4.743.02,1.317-.009,2.623.139,3.932.259.987.093,1.973-.074,2.965-.005,1.075.075,2.155-.02,3.232-.028,3.269-.026,6.54.323,9.819.027a26.4,26.4,0,0,1,6.784.177,22.358,22.358,0,0,0,4.451.178c1.445-.047,2.895.008,4.341-.114a105.828,105.828,0,0,1,12.906-.109,30.518,30.518,0,0,0,3.837-.135,13.592,13.592,0,0,1,1.65.069,23.354,23.354,0,0,0,2.738-.093,18.492,18.492,0,0,1,3.075.15c.342.03.683.052,1.024.052,1.961,0,3.923,0,5.883-.007l.062-3.661A14.033,14.033,0,0,1,434.086,299.007Z" fill="#004886"/>
            <path id="Path_9150" data-name="Path 9150" d="M479.473,300.972a1.665,1.665,0,0,0,.261.014,2.89,2.89,0,0,0,.565-.074c.989-.2,1.122-.364,1.167-1.351.049-1.117-.375-1.6-1.553-1.758a1.564,1.564,0,0,0-1.928,1.085c-.011.04-.021.081-.029.122A1.755,1.755,0,0,0,479.473,300.972Z" transform="translate(-72.552 -0.729)" fill="#004886"/>
            <path id="Path_9151" data-name="Path 9151" d="M499.2,300.445a3.575,3.575,0,0,0,1.424.375c.938.024,1.329-.35,1.436-1.369a1.643,1.643,0,0,0-1.473-1.736c-1.15-.088-2.116.333-2.122,1.56A1.14,1.14,0,0,0,499.2,300.445Z" transform="translate(-77.478 -0.72)" fill="#004886"/>
            <path id="Path_9152" data-name="Path 9152" d="M403.8,300.776a1.335,1.335,0,0,0,.412,0c.761-.008,1.725-1.213,1.721-2.145a1.268,1.268,0,0,0-1.31-1.223l-.057,0a1.747,1.747,0,0,0-1.886,1.6,1.766,1.766,0,0,0,0,.229A1.346,1.346,0,0,0,403.8,300.776Z" transform="translate(-54.479 -0.648)" fill="#004886"/>
            <path id="Path_9153" data-name="Path 9153" d="M370.913,302.652a1.281,1.281,0,0,0,.7-.445,2.644,2.644,0,0,0,.682-1.548,1.48,1.48,0,0,0-.457-1.23,1.1,1.1,0,0,0-1.5-.042,2.338,2.338,0,0,0-.969,2.326A1.281,1.281,0,0,0,370.913,302.652Z" transform="translate(-46.478 -1.057)" fill="#004886"/>
            <path id="Path_9154" data-name="Path 9154" d="M421.564,299.889a1.409,1.409,0,0,0,1.546-1.257,1.524,1.524,0,0,0,.007-.186c.008-.9-.621-1.766-1.289-1.784a2.357,2.357,0,0,0-1.964,1.936C419.853,299.358,420.506,299.855,421.564,299.889Z" transform="translate(-58.61 -0.47)" fill="#004886"/>
            <path id="Path_9155" data-name="Path 9155" d="M459.941,301.5a1.494,1.494,0,0,0,1.538-1.361c0-.8-.733-1.362-1.734-1.337a1.825,1.825,0,0,0-1.565,1.562C458.207,300.957,459.064,301.511,459.941,301.5Z" transform="translate(-67.808 -0.982)" fill="#004886"/>
            <path id="Path_9156" data-name="Path 9156" d="M354.808,301.923a2.046,2.046,0,0,0,1.7-2.053,1,1,0,0,0-.967-1.034c-.03,0-.06,0-.09,0a1.957,1.957,0,0,0-1.8,1.945A1.273,1.273,0,0,0,354.808,301.923Z" transform="translate(-42.713 -0.991)" fill="#004886"/>
            <path id="Path_9157" data-name="Path 9157" d="M387.361,301.065a1.731,1.731,0,0,0,1.7-1.657,1.262,1.262,0,0,0-1.239-1.233,2.524,2.524,0,0,0-1.663,1.838A1.186,1.186,0,0,0,387.361,301.065Z" transform="translate(-50.518 -0.833)" fill="#004886"/>
            <path id="Path_9158" data-name="Path 9158" d="M439.614,299.961a1.758,1.758,0,0,0,1.46-1.463,1.5,1.5,0,0,0-1.375-1.35,1.468,1.468,0,0,0-1.287,1.481A1.322,1.322,0,0,0,439.614,299.961Z" transform="translate(-63.062 -0.587)" fill="#004886"/>
          </g>
          <g id="Group_101187" data-name="Group 101187" transform="translate(259 769.115)">
            <path id="Path_9140-2" data-name="Path 9140" d="M213.549,300.911a2.889,2.889,0,0,1-.565.074,1.674,1.674,0,0,1-.261-.014,1.755,1.755,0,0,1-1.518-1.963c.008-.041.018-.082.029-.122a1.566,1.566,0,0,1,1.929-1.085c1.179.163,1.6.641,1.553,1.758C214.67,300.547,214.537,300.707,213.549,300.911Z" transform="translate(18.473 -295.434)" fill="#004886"/>
            <path id="Path_9141-2" data-name="Path 9141" d="M192.736,300.82a3.579,3.579,0,0,1-1.424-.375,1.141,1.141,0,0,1-.734-1.17c.005-1.227.971-1.648,2.122-1.56a1.643,1.643,0,0,1,1.473,1.736C194.065,300.471,193.673,300.844,192.736,300.82Z" transform="translate(54.684 -295.425)" fill="#004886"/>
            <path id="Path_9142-2" data-name="Path 9142" d="M288.359,300.776a1.346,1.346,0,0,1-1.536-1.537,1.645,1.645,0,0,1,0-.229,1.747,1.747,0,0,1,1.885-1.6l.057,0a1.268,1.268,0,0,1,1.31,1.223C290.084,299.563,289.119,300.767,288.359,300.776Z" transform="translate(-114.352 -295.353)" fill="#004886"/>
            <path id="Path_9143-2" data-name="Path 9143" d="M322.119,302.652a1.281,1.281,0,0,1-1.549-.939,2.339,2.339,0,0,1,.968-2.326,1.1,1.1,0,0,1,1.5.042,1.482,1.482,0,0,1,.457,1.23,2.644,2.644,0,0,1-.682,1.548A1.284,1.284,0,0,1,322.119,302.652Z" transform="translate(-173.408 -295.762)" fill="#004886"/>
            <path id="Path_9144-2" data-name="Path 9144" d="M271.326,299.889c-1.058-.033-1.711-.53-1.7-1.291a2.357,2.357,0,0,1,1.964-1.936c.668.017,1.3.888,1.289,1.784a1.53,1.53,0,0,1-.007.186A1.41,1.41,0,0,1,271.326,299.889Z" transform="translate(-84.096 -295.175)" fill="#004886"/>
            <path id="Path_9145-2" data-name="Path 9145" d="M233.013,301.5c-.876.016-1.733-.539-1.761-1.135a1.825,1.825,0,0,1,1.565-1.562c1-.025,1.733.539,1.733,1.337A1.493,1.493,0,0,1,233.013,301.5Z" transform="translate(-16.605 -295.687)" fill="#004886"/>
            <path id="Path_9146-2" data-name="Path 9146" d="M337.527,301.923a1.273,1.273,0,0,1-1.161-1.141,1.957,1.957,0,0,1,1.8-1.945c.03,0,.059,0,.09,0a1,1,0,0,1,.967,1.034A2.044,2.044,0,0,1,337.527,301.923Z" transform="translate(-201.157 -295.696)" fill="#004886"/>
            <path id="Path_9147-2" data-name="Path 9147" d="M305,301.065a1.186,1.186,0,0,1-1.2-1.053,2.524,2.524,0,0,1,1.663-1.838,1.26,1.26,0,0,1,1.239,1.233A1.731,1.731,0,0,1,305,301.065Z" transform="translate(-143.877 -295.538)" fill="#004886"/>
            <path id="Path_9148-2" data-name="Path 9148" d="M253.062,299.961a1.323,1.323,0,0,1-1.2-1.332,1.468,1.468,0,0,1,1.288-1.481,1.5,1.5,0,0,1,1.375,1.35A1.757,1.757,0,0,1,253.062,299.961Z" transform="translate(-52.234 -295.291)" fill="#004886"/>
            <path id="Path_9149-2" data-name="Path 9149" d="M177.506,299.007c.692-.929,1.384-1.859,2.081-2.781a2.814,2.814,0,0,1,.41-.391.748.748,0,0,1,1.169.056c2.29,2.132,4.329,4.507,6.559,6.7a1.624,1.624,0,0,0,.989.453,2.665,2.665,0,0,0,2.749-1.363c1.256-1.718,2.794-3.22,3.95-5.021.021-.033.043-.063.064-.095,1.074-1.638,1.217-1.1,2.08-.163.5.542,1.148.954,1.627,1.492.62.7,1.319,1.317,1.916,2.034.768.923,1.548,1.835,2.318,2.757a1.216,1.216,0,0,0,.889.416,2.218,2.218,0,0,0,2.373-1.129c.692-1.112,1.567-2.108,2.252-3.231.739-1.209,1.744-2.214,2.54-3.379.3-.441.588-.113.793.1.8.841,1.607,1.681,2.353,2.571,1.211,1.443,2.378,2.924,3.563,4.391a1.07,1.07,0,0,0,.745.486c.721.049,1.445.078,2.167.116.249.013.366-.144.483-.334.834-1.36,1.666-2.719,2.515-4.072a14.36,14.36,0,0,1,2.372-3.133c.385-.35.625-.3.913.085a22.683,22.683,0,0,0,2.98,3.137,48.369,48.369,0,0,1,3.486,3.831,1.2,1.2,0,0,0,1.882.019c1.026-1.1,1.488-2.575,2.461-3.7s1.5-2.52,2.425-3.666c.518-.641.582-.655,1.048.028a38.95,38.95,0,0,0,4.475,5.1c.582.6,1.079,1.274,1.629,1.909a1.5,1.5,0,0,0,2.118-.117c.018-.021.036-.041.053-.063,1.224-1.864,2.249-3.845,3.386-5.758a2.56,2.56,0,0,1,.264-.373c.46-.532.614-.516,1.149-.055a29.863,29.863,0,0,1,2.473,2.916c1.032,1.145,2.081,2.276,3.12,3.415a.622.622,0,0,0,.612.21,5.764,5.764,0,0,1,1.767,0,.607.607,0,0,0,.644-.257,26.233,26.233,0,0,0,2.116-3.38c.43-.8.808-1.641,1.306-2.406.334-.509.5-.55.933-.14a62.508,62.508,0,0,1,4.389,4.575c.6.692,1.173,1.4,1.774,2.092a3.744,3.744,0,0,0,2.218.464c.2-.085.251-.276.324-.448a50.088,50.088,0,0,1,3.135-6.158c.258-.427.62-.425,1.073.043.914.945,1.827,1.891,2.714,2.86a36.5,36.5,0,0,1,3.03,3.5,1.27,1.27,0,0,0,1.112.57c2.195.008,1.957.026,2.638-1.74.546-1.42,1.138-2.822,1.711-4.231a.794.794,0,0,1,.054-.1c.678-1.216,1.051-1.26,2.032-.3a53.083,53.083,0,0,1,5.186,5.707c.565.741,1.295.587,2,.659.228.022.328-.223.419-.418.761-1.62,1.561-3.219,2.184-4.9.608-1.644.906-1.771,2.1-.79,1.189-.981,1.487-.855,2.1.79.623,1.683,1.423,3.281,2.183,4.9.091.195.191.44.419.418.709-.072,1.439.082,2-.659a53.066,53.066,0,0,1,5.185-5.707c.982-.957,1.355-.913,2.033.3a.906.906,0,0,1,.054.1c.573,1.41,1.164,2.812,1.711,4.231.681,1.766.443,1.748,2.638,1.74a1.269,1.269,0,0,0,1.111-.57,36.62,36.62,0,0,1,3.031-3.5c.888-.97,1.8-1.916,2.714-2.86.452-.468.815-.47,1.073-.043a50.19,50.19,0,0,1,3.134,6.158c.074.172.122.362.325.448a3.745,3.745,0,0,0,2.218-.464c.6-.688,1.176-1.4,1.774-2.092a62.83,62.83,0,0,1,4.389-4.575c.435-.41.6-.369.933.14.5.764.877,1.6,1.307,2.406a26.3,26.3,0,0,0,2.116,3.38.608.608,0,0,0,.645.257,5.759,5.759,0,0,1,1.766,0,.621.621,0,0,0,.612-.21c1.04-1.139,2.089-2.27,3.121-3.415a29.868,29.868,0,0,1,2.473-2.916c.535-.461.689-.476,1.148.055a2.567,2.567,0,0,1,.264.373c1.138,1.913,2.162,3.894,3.386,5.758.017.022.035.043.053.063a1.5,1.5,0,0,0,2.117.117c.55-.635,1.047-1.311,1.629-1.909a38.944,38.944,0,0,0,4.475-5.1c.467-.683.531-.669,1.048-.028.924,1.146,1.452,2.537,2.425,3.666s1.436,2.6,2.461,3.7a1.2,1.2,0,0,0,1.883-.019,48.2,48.2,0,0,1,3.486-3.831,22.73,22.73,0,0,0,2.98-3.137c.289-.382.528-.435.913-.085a14.361,14.361,0,0,1,2.373,3.133c.85,1.353,1.682,2.712,2.515,4.072.116.19.232.347.483.334.722-.038,1.446-.067,2.167-.116a1.071,1.071,0,0,0,.745-.486c1.184-1.467,2.351-2.948,3.563-4.391.746-.89,1.552-1.73,2.353-2.571.205-.215.492-.543.793-.1.8,1.165,1.8,2.17,2.54,3.379.685,1.123,1.559,2.119,2.252,3.231a2.217,2.217,0,0,0,2.373,1.129,1.217,1.217,0,0,0,.89-.416c.77-.922,1.55-1.835,2.317-2.757.6-.717,1.3-1.335,1.917-2.034.479-.539,1.126-.951,1.627-1.492.862-.935,1.005-1.476,2.08.163.021.032.043.062.064.095,1.156,1.8,2.694,3.3,3.95,5.021a2.664,2.664,0,0,0,2.749,1.363,1.624,1.624,0,0,0,.989-.453c2.23-2.19,4.269-4.565,6.558-6.7a.775.775,0,0,1,.114-.125.749.749,0,0,1,1.056.069,2.806,2.806,0,0,1,.409.391c.7.923,1.389,1.853,2.081,2.781a13.988,13.988,0,0,0,1.782,2.083l-.062,3.661c-1.961,0-3.921.011-5.883.007-.34,0-.682-.021-1.024-.052a18.492,18.492,0,0,0-3.075-.15,23.354,23.354,0,0,1-2.738.093,13.6,13.6,0,0,0-1.65-.069,30.518,30.518,0,0,1-3.837.135,105.827,105.827,0,0,0-12.906.109c-1.447.122-2.9.067-4.341.114a22.353,22.353,0,0,1-4.451-.178,26.411,26.411,0,0,0-6.785-.177c-3.279.3-6.549-.053-9.818-.027-1.077.008-2.157.1-3.233.028-.992-.069-1.978.1-2.965.005-1.309-.12-2.615-.268-3.933-.259-1.581.012-3.17.1-4.742-.02a23.721,23.721,0,0,0-4.1-.16c-1.353.126-2.7-.117-4.053-.106-1.223.01-2.444.06-3.655-.048a19.725,19.725,0,0,0-3.248.069,47.151,47.151,0,0,1-5.92.371,44.191,44.191,0,0,0-4.736.208,8.807,8.807,0,0,1-1.428.1,20.361,20.361,0,0,0-3.25.092,74.745,74.745,0,0,1-8.053.236c-.7-.03-1.408-.047-2.113-.066-2.516-.07-5.026.213-7.545.139-1.5-.044-3-.011-4.506.016-1.388.024-2.775.063-4.164.061v.037c-.271-.028-.544-.031-.816-.046-.347-.021-.695-.036-1.043-.037s-.7.016-1.043.037c-.272.015-.545.018-.816.046v-.037c-1.389,0-2.776-.036-4.164-.061-1.5-.027-3.006-.06-4.506-.016-2.519.074-5.028-.209-7.545-.139-.7.019-1.409.036-2.113.066a74.73,74.73,0,0,1-8.052-.236,20.364,20.364,0,0,0-3.25-.092,8.807,8.807,0,0,1-1.428-.1,44.2,44.2,0,0,0-4.736-.208,47.142,47.142,0,0,1-5.92-.371,19.733,19.733,0,0,0-3.249-.069c-1.21.108-2.431.058-3.654.048-1.353-.011-2.7.232-4.053.106a23.721,23.721,0,0,0-4.1.16c-1.572.125-3.161.032-4.743.02-1.317-.009-2.623.139-3.932.259-.987.093-1.973-.074-2.965-.005-1.075.075-2.155-.02-3.232-.028-3.269-.026-6.54.323-9.819.027a26.4,26.4,0,0,0-6.784.177,22.358,22.358,0,0,1-4.451.178c-1.445-.047-2.895.008-4.341-.114a105.828,105.828,0,0,0-12.906-.109,30.518,30.518,0,0,1-3.837-.135,13.592,13.592,0,0,0-1.65.069,23.354,23.354,0,0,1-2.738-.093,18.492,18.492,0,0,0-3.075.15c-.342.03-.683.052-1.024.052-1.961,0-3.923,0-5.883-.007l-.062-3.661A14.033,14.033,0,0,0,177.506,299.007Z" transform="translate(-175.724 -294.705)" fill="#004886"/>
            <path id="Path_9150-2" data-name="Path 9150" d="M479.936,300.972a1.665,1.665,0,0,1-.261.014,2.889,2.889,0,0,1-.565-.074c-.989-.2-1.122-.364-1.167-1.351-.049-1.117.375-1.6,1.553-1.758a1.564,1.564,0,0,1,1.928,1.085c.011.04.021.081.029.122A1.755,1.755,0,0,1,479.936,300.972Z" transform="translate(-450.989 -295.434)" fill="#004886"/>
            <path id="Path_9151-2" data-name="Path 9151" d="M501.322,300.445a3.575,3.575,0,0,1-1.424.375c-.938.024-1.329-.35-1.436-1.369a1.643,1.643,0,0,1,1.473-1.736c1.15-.088,2.116.333,2.122,1.56A1.14,1.14,0,0,1,501.322,300.445Z" transform="translate(-487.175 -295.425)" fill="#004886"/>
            <path id="Path_9152-2" data-name="Path 9152" d="M404.792,300.776a1.335,1.335,0,0,1-.412,0c-.761-.008-1.725-1.213-1.721-2.145a1.268,1.268,0,0,1,1.31-1.223l.057,0a1.747,1.747,0,0,1,1.886,1.6,1.766,1.766,0,0,1,0,.229A1.346,1.346,0,0,1,404.792,300.776Z" transform="translate(-318.244 -295.353)" fill="#004886"/>
            <path id="Path_9153-2" data-name="Path 9153" d="M370.715,302.652a1.281,1.281,0,0,1-.7-.445,2.644,2.644,0,0,1-.682-1.548,1.48,1.48,0,0,1,.457-1.23,1.1,1.1,0,0,1,1.5-.042,2.338,2.338,0,0,1,.969,2.326A1.281,1.281,0,0,1,370.715,302.652Z" transform="translate(-259.282 -295.762)" fill="#004886"/>
            <path id="Path_9154-2" data-name="Path 9154" d="M421.419,299.889a1.409,1.409,0,0,1-1.546-1.257,1.524,1.524,0,0,1-.007-.186c-.008-.9.621-1.766,1.289-1.784a2.357,2.357,0,0,1,1.964,1.936C423.13,299.358,422.476,299.855,421.419,299.889Z" transform="translate(-348.505 -295.175)" fill="#004886"/>
            <path id="Path_9155-2" data-name="Path 9155" d="M459.717,301.5a1.494,1.494,0,0,1-1.538-1.361c0-.8.733-1.362,1.734-1.337a1.825,1.825,0,0,1,1.565,1.562C461.451,300.957,460.594,301.511,459.717,301.5Z" transform="translate(-415.982 -295.687)" fill="#004886"/>
            <path id="Path_9156-2" data-name="Path 9156" d="M355.343,301.923a2.046,2.046,0,0,1-1.7-2.053,1,1,0,0,1,.967-1.034c.03,0,.06,0,.09,0a1.957,1.957,0,0,1,1.8,1.945A1.273,1.273,0,0,1,355.343,301.923Z" transform="translate(-231.57 -295.696)" fill="#004886"/>
            <path id="Path_9157-2" data-name="Path 9157" d="M387.86,301.065a1.731,1.731,0,0,1-1.7-1.657,1.262,1.262,0,0,1,1.239-1.233,2.524,2.524,0,0,1,1.663,1.838A1.186,1.186,0,0,1,387.86,301.065Z" transform="translate(-288.835 -295.538)" fill="#004886"/>
            <path id="Path_9158-2" data-name="Path 9158" d="M439.871,299.961a1.758,1.758,0,0,1-1.46-1.463,1.5,1.5,0,0,1,1.375-1.35,1.468,1.468,0,0,1,1.287,1.481A1.322,1.322,0,0,1,439.871,299.961Z" transform="translate(-380.555 -295.291)" fill="#004886"/>
          </g>
        </g>
        <g id="Group_101189" data-name="Group 101189" transform="translate(519 769.115)">
          <g id="Group_101186-2" data-name="Group 101186" transform="translate(259 0)">
            <path id="Path_9140-3" data-name="Path 9140" d="M213.549,300.911a2.889,2.889,0,0,1-.565.074,1.674,1.674,0,0,1-.261-.014,1.755,1.755,0,0,1-1.518-1.963c.008-.041.018-.082.029-.122a1.566,1.566,0,0,1,1.929-1.085c1.179.163,1.6.641,1.553,1.758C214.67,300.547,214.537,300.707,213.549,300.911Z" transform="translate(18.474 -295.434)" fill="#004886"/>
            <path id="Path_9141-3" data-name="Path 9141" d="M192.736,300.82a3.579,3.579,0,0,1-1.424-.375,1.141,1.141,0,0,1-.734-1.17c.005-1.227.971-1.648,2.122-1.56a1.643,1.643,0,0,1,1.473,1.736C194.065,300.471,193.673,300.844,192.736,300.82Z" transform="translate(54.684 -295.425)" fill="#004886"/>
            <path id="Path_9142-3" data-name="Path 9142" d="M288.359,300.776a1.346,1.346,0,0,1-1.536-1.537,1.645,1.645,0,0,1,0-.229,1.747,1.747,0,0,1,1.885-1.6l.057,0a1.268,1.268,0,0,1,1.31,1.223C290.084,299.563,289.119,300.767,288.359,300.776Z" transform="translate(-114.352 -295.353)" fill="#004886"/>
            <path id="Path_9143-3" data-name="Path 9143" d="M322.119,302.652a1.281,1.281,0,0,1-1.549-.939,2.339,2.339,0,0,1,.968-2.326,1.1,1.1,0,0,1,1.5.042,1.482,1.482,0,0,1,.457,1.23,2.644,2.644,0,0,1-.682,1.548A1.284,1.284,0,0,1,322.119,302.652Z" transform="translate(-173.408 -295.762)" fill="#004886"/>
            <path id="Path_9144-3" data-name="Path 9144" d="M271.326,299.889c-1.058-.033-1.711-.53-1.7-1.291a2.357,2.357,0,0,1,1.964-1.936c.668.017,1.3.888,1.289,1.784a1.53,1.53,0,0,1-.007.186A1.41,1.41,0,0,1,271.326,299.889Z" transform="translate(-84.096 -295.175)" fill="#004886"/>
            <path id="Path_9145-3" data-name="Path 9145" d="M233.013,301.5c-.876.016-1.733-.539-1.761-1.135a1.825,1.825,0,0,1,1.565-1.562c1-.025,1.733.539,1.733,1.337A1.493,1.493,0,0,1,233.013,301.5Z" transform="translate(-16.605 -295.687)" fill="#004886"/>
            <path id="Path_9146-3" data-name="Path 9146" d="M337.527,301.923a1.273,1.273,0,0,1-1.161-1.141,1.957,1.957,0,0,1,1.8-1.945c.03,0,.059,0,.09,0a1,1,0,0,1,.967,1.034A2.044,2.044,0,0,1,337.527,301.923Z" transform="translate(-201.157 -295.696)" fill="#004886"/>
            <path id="Path_9147-3" data-name="Path 9147" d="M305,301.065a1.186,1.186,0,0,1-1.2-1.053,2.524,2.524,0,0,1,1.663-1.838,1.26,1.26,0,0,1,1.239,1.233A1.731,1.731,0,0,1,305,301.065Z" transform="translate(-143.877 -295.538)" fill="#004886"/>
            <path id="Path_9148-3" data-name="Path 9148" d="M253.062,299.961a1.323,1.323,0,0,1-1.2-1.332,1.468,1.468,0,0,1,1.288-1.481,1.5,1.5,0,0,1,1.375,1.35A1.757,1.757,0,0,1,253.062,299.961Z" transform="translate(-52.234 -295.291)" fill="#004886"/>
            <path id="Path_9149-3" data-name="Path 9149" d="M177.506,299.007c.692-.929,1.384-1.859,2.081-2.781a2.814,2.814,0,0,1,.41-.391.748.748,0,0,1,1.169.056c2.29,2.132,4.329,4.507,6.559,6.7a1.624,1.624,0,0,0,.989.453,2.665,2.665,0,0,0,2.749-1.363c1.256-1.718,2.794-3.22,3.95-5.021.021-.033.043-.063.064-.095,1.075-1.638,1.217-1.1,2.08-.163.5.542,1.148.954,1.627,1.492.62.7,1.319,1.317,1.916,2.034.768.923,1.548,1.835,2.318,2.757a1.216,1.216,0,0,0,.889.416,2.218,2.218,0,0,0,2.373-1.129c.692-1.112,1.567-2.108,2.252-3.231.739-1.209,1.744-2.214,2.54-3.379.3-.441.588-.113.793.1.8.841,1.607,1.681,2.353,2.571,1.211,1.443,2.378,2.924,3.563,4.391a1.07,1.07,0,0,0,.745.486c.721.049,1.445.078,2.167.116.249.013.366-.144.483-.334.834-1.36,1.666-2.719,2.515-4.072a14.36,14.36,0,0,1,2.372-3.133c.385-.35.625-.3.913.085a22.683,22.683,0,0,0,2.98,3.137,48.369,48.369,0,0,1,3.486,3.831,1.2,1.2,0,0,0,1.882.019c1.026-1.1,1.488-2.575,2.461-3.7s1.5-2.52,2.425-3.666c.518-.641.582-.655,1.048.028a38.95,38.95,0,0,0,4.475,5.1c.582.6,1.079,1.274,1.629,1.909a1.5,1.5,0,0,0,2.118-.117c.018-.021.036-.041.053-.063,1.224-1.864,2.249-3.845,3.386-5.758a2.56,2.56,0,0,1,.264-.373c.46-.532.614-.516,1.149-.055a29.863,29.863,0,0,1,2.473,2.916c1.032,1.145,2.081,2.276,3.12,3.415a.622.622,0,0,0,.612.21,5.764,5.764,0,0,1,1.767,0,.607.607,0,0,0,.644-.257,26.233,26.233,0,0,0,2.116-3.38c.43-.8.808-1.641,1.306-2.406.334-.509.5-.55.933-.14a62.508,62.508,0,0,1,4.389,4.575c.6.692,1.173,1.4,1.774,2.092a3.744,3.744,0,0,0,2.218.464c.2-.085.251-.276.324-.448a50.088,50.088,0,0,1,3.135-6.158c.258-.427.62-.425,1.073.043.914.945,1.827,1.891,2.714,2.86a36.5,36.5,0,0,1,3.03,3.5,1.27,1.27,0,0,0,1.112.57c2.195.008,1.957.026,2.638-1.74.546-1.42,1.138-2.822,1.711-4.231a.794.794,0,0,1,.054-.1c.678-1.216,1.051-1.26,2.032-.3a53.083,53.083,0,0,1,5.186,5.707c.565.741,1.295.587,2,.659.228.022.328-.223.419-.418.761-1.62,1.561-3.219,2.184-4.9.608-1.644.906-1.771,2.1-.79,1.189-.981,1.487-.855,2.1.79.623,1.683,1.423,3.281,2.183,4.9.091.195.191.44.419.418.709-.072,1.439.082,2-.659a53.066,53.066,0,0,1,5.185-5.707c.982-.957,1.355-.913,2.033.3a.906.906,0,0,1,.054.1c.573,1.41,1.164,2.812,1.711,4.231.681,1.766.443,1.748,2.638,1.74a1.269,1.269,0,0,0,1.111-.57,36.62,36.62,0,0,1,3.031-3.5c.888-.97,1.8-1.916,2.714-2.86.452-.468.815-.47,1.073-.043a50.19,50.19,0,0,1,3.134,6.158c.074.172.122.362.325.448a3.745,3.745,0,0,0,2.218-.464c.6-.688,1.176-1.4,1.774-2.092a62.83,62.83,0,0,1,4.389-4.575c.435-.41.6-.369.933.14.5.764.877,1.6,1.307,2.406a26.3,26.3,0,0,0,2.116,3.38.608.608,0,0,0,.645.257,5.759,5.759,0,0,1,1.766,0,.621.621,0,0,0,.612-.21c1.04-1.139,2.089-2.27,3.121-3.415a29.868,29.868,0,0,1,2.473-2.916c.535-.461.689-.476,1.148.055a2.567,2.567,0,0,1,.264.373c1.138,1.913,2.162,3.894,3.386,5.758.017.022.035.043.053.063a1.5,1.5,0,0,0,2.117.117c.55-.635,1.047-1.311,1.629-1.909a38.944,38.944,0,0,0,4.475-5.1c.467-.683.531-.669,1.048-.028.924,1.146,1.452,2.537,2.425,3.666s1.436,2.6,2.461,3.7a1.2,1.2,0,0,0,1.883-.019,48.211,48.211,0,0,1,3.486-3.831,22.73,22.73,0,0,0,2.98-3.137c.289-.382.528-.435.913-.085a14.361,14.361,0,0,1,2.373,3.133c.85,1.353,1.682,2.712,2.515,4.072.116.19.232.347.483.334.722-.038,1.446-.067,2.167-.116a1.071,1.071,0,0,0,.745-.486c1.184-1.467,2.351-2.948,3.563-4.391.746-.89,1.552-1.73,2.353-2.571.205-.215.492-.543.793-.1.8,1.165,1.8,2.17,2.54,3.379.685,1.123,1.559,2.119,2.252,3.231a2.217,2.217,0,0,0,2.372,1.129,1.216,1.216,0,0,0,.89-.416c.77-.922,1.55-1.835,2.317-2.757.6-.717,1.3-1.335,1.917-2.034.479-.539,1.126-.951,1.627-1.492.862-.935,1.005-1.476,2.08.163.021.032.043.062.064.095,1.156,1.8,2.694,3.3,3.95,5.021a2.664,2.664,0,0,0,2.749,1.363,1.624,1.624,0,0,0,.989-.453c2.23-2.19,4.269-4.565,6.558-6.7a.773.773,0,0,1,.114-.125.749.749,0,0,1,1.056.069,2.805,2.805,0,0,1,.409.391c.7.923,1.389,1.853,2.081,2.781a13.986,13.986,0,0,0,1.782,2.083l-.062,3.661c-1.961,0-3.921.011-5.883.007-.34,0-.682-.021-1.024-.052a18.492,18.492,0,0,0-3.075-.15,23.354,23.354,0,0,1-2.738.093,13.6,13.6,0,0,0-1.65-.069,30.517,30.517,0,0,1-3.837.135,105.827,105.827,0,0,0-12.906.109c-1.447.122-2.9.067-4.341.114a22.353,22.353,0,0,1-4.451-.178,26.411,26.411,0,0,0-6.785-.177c-3.279.3-6.549-.053-9.818-.027-1.077.008-2.157.1-3.233.028-.992-.069-1.978.1-2.965.005-1.309-.12-2.615-.268-3.933-.259-1.581.012-3.17.1-4.742-.02a23.721,23.721,0,0,0-4.1-.16c-1.353.126-2.7-.117-4.053-.106-1.223.01-2.444.06-3.655-.048a19.728,19.728,0,0,0-3.248.069,47.151,47.151,0,0,1-5.92.371,44.191,44.191,0,0,0-4.736.208,8.807,8.807,0,0,1-1.428.1,20.361,20.361,0,0,0-3.25.092,74.745,74.745,0,0,1-8.053.236c-.7-.03-1.408-.047-2.113-.066-2.516-.07-5.026.213-7.545.139-1.5-.044-3-.011-4.506.016-1.388.024-2.775.063-4.164.061v.037c-.271-.028-.544-.031-.816-.046-.347-.021-.695-.036-1.043-.037s-.7.016-1.043.037c-.272.015-.545.018-.816.046v-.037c-1.389,0-2.776-.036-4.164-.061-1.5-.027-3.006-.06-4.506-.016-2.519.074-5.028-.209-7.545-.139-.7.019-1.409.036-2.113.066a74.73,74.73,0,0,1-8.052-.236,20.364,20.364,0,0,0-3.25-.092,8.807,8.807,0,0,1-1.428-.1,44.2,44.2,0,0,0-4.736-.208,47.142,47.142,0,0,1-5.92-.371,19.737,19.737,0,0,0-3.249-.069c-1.21.108-2.431.058-3.654.048-1.353-.011-2.7.232-4.053.106a23.721,23.721,0,0,0-4.1.16c-1.572.125-3.161.032-4.743.02-1.317-.009-2.623.139-3.932.259-.987.093-1.973-.074-2.965-.005-1.075.075-2.155-.02-3.232-.028-3.269-.026-6.54.323-9.819.027a26.4,26.4,0,0,0-6.784.177,22.358,22.358,0,0,1-4.451.178c-1.445-.047-2.895.008-4.341-.114a105.828,105.828,0,0,0-12.906-.109,30.518,30.518,0,0,1-3.837-.135,13.592,13.592,0,0,0-1.65.069,23.354,23.354,0,0,1-2.738-.093,18.492,18.492,0,0,0-3.075.15c-.342.03-.683.052-1.024.052-1.961,0-3.923,0-5.883-.007l-.062-3.661A14.033,14.033,0,0,0,177.506,299.007Z" transform="translate(-175.724 -294.705)" fill="#004886"/>
            <path id="Path_9150-3" data-name="Path 9150" d="M479.936,300.972a1.665,1.665,0,0,1-.261.014,2.89,2.89,0,0,1-.565-.074c-.989-.2-1.122-.364-1.167-1.351-.049-1.117.375-1.6,1.553-1.758a1.564,1.564,0,0,1,1.928,1.085c.011.04.021.081.029.122A1.755,1.755,0,0,1,479.936,300.972Z" transform="translate(-450.989 -295.434)" fill="#004886"/>
            <path id="Path_9151-3" data-name="Path 9151" d="M501.322,300.445a3.575,3.575,0,0,1-1.424.375c-.938.024-1.329-.35-1.436-1.369a1.643,1.643,0,0,1,1.473-1.736c1.15-.088,2.116.333,2.122,1.56A1.14,1.14,0,0,1,501.322,300.445Z" transform="translate(-487.175 -295.425)" fill="#004886"/>
            <path id="Path_9152-3" data-name="Path 9152" d="M404.792,300.776a1.335,1.335,0,0,1-.412,0c-.761-.008-1.725-1.213-1.721-2.145a1.268,1.268,0,0,1,1.31-1.223l.057,0a1.747,1.747,0,0,1,1.886,1.6,1.766,1.766,0,0,1,0,.229A1.346,1.346,0,0,1,404.792,300.776Z" transform="translate(-318.244 -295.353)" fill="#004886"/>
            <path id="Path_9153-3" data-name="Path 9153" d="M370.715,302.652a1.281,1.281,0,0,1-.7-.445,2.644,2.644,0,0,1-.682-1.548,1.48,1.48,0,0,1,.457-1.23,1.1,1.1,0,0,1,1.5-.042,2.338,2.338,0,0,1,.969,2.326A1.281,1.281,0,0,1,370.715,302.652Z" transform="translate(-259.282 -295.762)" fill="#004886"/>
            <path id="Path_9154-3" data-name="Path 9154" d="M421.418,299.889a1.409,1.409,0,0,1-1.546-1.257,1.524,1.524,0,0,1-.007-.186c-.008-.9.621-1.766,1.289-1.784a2.357,2.357,0,0,1,1.964,1.936C423.13,299.358,422.476,299.855,421.418,299.889Z" transform="translate(-348.505 -295.175)" fill="#004886"/>
            <path id="Path_9155-3" data-name="Path 9155" d="M459.717,301.5a1.494,1.494,0,0,1-1.538-1.361c0-.8.733-1.362,1.734-1.337a1.825,1.825,0,0,1,1.565,1.562C461.451,300.957,460.594,301.511,459.717,301.5Z" transform="translate(-415.982 -295.687)" fill="#004886"/>
            <path id="Path_9156-3" data-name="Path 9156" d="M355.343,301.923a2.046,2.046,0,0,1-1.7-2.053,1,1,0,0,1,.967-1.034c.03,0,.06,0,.09,0a1.957,1.957,0,0,1,1.8,1.945A1.273,1.273,0,0,1,355.343,301.923Z" transform="translate(-231.57 -295.696)" fill="#004886"/>
            <path id="Path_9157-3" data-name="Path 9157" d="M387.86,301.065a1.731,1.731,0,0,1-1.7-1.657,1.262,1.262,0,0,1,1.239-1.233,2.524,2.524,0,0,1,1.663,1.838A1.186,1.186,0,0,1,387.86,301.065Z" transform="translate(-288.835 -295.538)" fill="#004886"/>
            <path id="Path_9158-3" data-name="Path 9158" d="M439.871,299.961a1.758,1.758,0,0,1-1.46-1.463,1.5,1.5,0,0,1,1.375-1.35,1.468,1.468,0,0,1,1.287,1.481A1.322,1.322,0,0,1,439.871,299.961Z" transform="translate(-380.555 -295.291)" fill="#004886"/>
          </g>
          <g id="Group_101187-2" data-name="Group 101187" transform="translate(0)">
            <path id="Path_9140-4" data-name="Path 9140" d="M212.36,300.911a2.889,2.889,0,0,0,.565.074,1.674,1.674,0,0,0,.261-.014,1.755,1.755,0,0,0,1.518-1.963c-.008-.041-.018-.082-.029-.122a1.566,1.566,0,0,0-1.929-1.085c-1.179.163-1.6.641-1.553,1.758C211.239,300.547,211.371,300.707,212.36,300.911Z" transform="translate(-184.238 -295.434)" fill="#004886"/>
            <path id="Path_9141-4" data-name="Path 9141" d="M192.012,300.82a3.579,3.579,0,0,0,1.424-.375,1.141,1.141,0,0,0,.734-1.17c-.005-1.227-.971-1.648-2.122-1.56a1.643,1.643,0,0,0-1.473,1.736C190.682,300.471,191.075,300.844,192.012,300.82Z" transform="translate(-179.289 -295.425)" fill="#004886"/>
            <path id="Path_9142-4" data-name="Path 9142" d="M288.527,300.776a1.346,1.346,0,0,0,1.536-1.537,1.645,1.645,0,0,0,0-.229,1.747,1.747,0,0,0-1.885-1.6l-.057,0a1.268,1.268,0,0,0-1.31,1.223C286.8,299.563,287.768,300.767,288.527,300.776Z" transform="translate(-202.391 -295.353)" fill="#004886"/>
            <path id="Path_9143-4" data-name="Path 9143" d="M321.921,302.652a1.281,1.281,0,0,0,1.549-.939,2.339,2.339,0,0,0-.968-2.326,1.1,1.1,0,0,0-1.5.042,1.482,1.482,0,0,0-.457,1.23,2.644,2.644,0,0,0,.682,1.548A1.284,1.284,0,0,0,321.921,302.652Z" transform="translate(-210.488 -295.762)" fill="#004886"/>
            <path id="Path_9144-4" data-name="Path 9144" d="M271.18,299.889c1.058-.033,1.711-.53,1.7-1.291a2.357,2.357,0,0,0-1.964-1.936c-.668.017-1.3.888-1.289,1.784a1.53,1.53,0,0,0,.007.186A1.41,1.41,0,0,0,271.18,299.889Z" transform="translate(-198.267 -295.175)" fill="#004886"/>
            <path id="Path_9145-4" data-name="Path 9145" d="M232.79,301.5c.876.016,1.733-.539,1.761-1.135a1.825,1.825,0,0,0-1.565-1.562c-1-.025-1.733.539-1.733,1.337A1.493,1.493,0,0,0,232.79,301.5Z" transform="translate(-189.054 -295.687)" fill="#004886"/>
            <path id="Path_9146-4" data-name="Path 9146" d="M338.061,301.923a1.273,1.273,0,0,0,1.161-1.141,1.957,1.957,0,0,0-1.8-1.945c-.03,0-.059,0-.09,0a1,1,0,0,0-.967,1.034A2.044,2.044,0,0,0,338.061,301.923Z" transform="translate(-214.289 -295.696)" fill="#004886"/>
            <path id="Path_9147-4" data-name="Path 9147" d="M305.494,301.065a1.186,1.186,0,0,0,1.2-1.053,2.524,2.524,0,0,0-1.663-1.838,1.26,1.26,0,0,0-1.239,1.233A1.731,1.731,0,0,0,305.494,301.065Z" transform="translate(-206.469 -295.538)" fill="#004886"/>
            <path id="Path_9148-4" data-name="Path 9148" d="M253.317,299.961a1.323,1.323,0,0,0,1.2-1.332,1.468,1.468,0,0,0-1.288-1.481,1.5,1.5,0,0,0-1.375,1.35A1.757,1.757,0,0,0,253.317,299.961Z" transform="translate(-194.001 -295.291)" fill="#004886"/>
            <path id="Path_9149-4" data-name="Path 9149" d="M434.086,299.007c-.692-.929-1.384-1.859-2.081-2.781a2.817,2.817,0,0,0-.41-.391.748.748,0,0,0-1.169.056c-2.29,2.132-4.329,4.507-6.559,6.7a1.624,1.624,0,0,1-.989.453,2.665,2.665,0,0,1-2.749-1.363c-1.256-1.718-2.794-3.22-3.95-5.021-.021-.033-.043-.063-.064-.095-1.074-1.638-1.217-1.1-2.08-.163-.5.542-1.148.954-1.627,1.492-.62.7-1.319,1.317-1.916,2.034-.768.923-1.548,1.835-2.318,2.757a1.216,1.216,0,0,1-.889.416,2.218,2.218,0,0,1-2.373-1.129c-.692-1.112-1.567-2.108-2.252-3.231-.739-1.209-1.744-2.214-2.54-3.379-.3-.441-.588-.113-.793.1-.8.841-1.607,1.681-2.353,2.571-1.211,1.443-2.378,2.924-3.563,4.391a1.07,1.07,0,0,1-.745.486c-.721.049-1.445.078-2.167.116-.249.013-.366-.144-.483-.334-.834-1.36-1.666-2.719-2.515-4.072a14.36,14.36,0,0,0-2.372-3.133c-.385-.35-.625-.3-.913.085a22.683,22.683,0,0,1-2.98,3.137,48.369,48.369,0,0,0-3.486,3.831,1.2,1.2,0,0,1-1.882.019c-1.026-1.1-1.488-2.575-2.461-3.7s-1.5-2.52-2.425-3.666c-.518-.641-.582-.655-1.048.028a38.95,38.95,0,0,1-4.475,5.1c-.582.6-1.079,1.274-1.629,1.909a1.5,1.5,0,0,1-2.118-.117c-.018-.021-.036-.041-.053-.063-1.224-1.864-2.249-3.845-3.386-5.758a2.56,2.56,0,0,0-.264-.373c-.46-.532-.614-.516-1.149-.055a29.863,29.863,0,0,0-2.473,2.916c-1.032,1.145-2.081,2.276-3.12,3.415a.622.622,0,0,1-.612.21,5.764,5.764,0,0,0-1.767,0,.607.607,0,0,1-.644-.257,26.233,26.233,0,0,1-2.116-3.38c-.43-.8-.808-1.641-1.306-2.406-.334-.509-.5-.55-.933-.14a62.508,62.508,0,0,0-4.389,4.575c-.6.692-1.173,1.4-1.774,2.092a3.744,3.744,0,0,1-2.218.464c-.2-.085-.251-.276-.324-.448a50.088,50.088,0,0,0-3.135-6.158c-.258-.427-.62-.425-1.073.043-.914.945-1.827,1.891-2.714,2.86a36.5,36.5,0,0,0-3.03,3.5,1.27,1.27,0,0,1-1.112.57c-2.195.008-1.957.026-2.638-1.74-.546-1.42-1.138-2.822-1.711-4.231a.794.794,0,0,0-.054-.1c-.678-1.216-1.051-1.26-2.032-.3a53.083,53.083,0,0,0-5.186,5.707c-.565.741-1.295.587-2,.659-.228.022-.328-.223-.419-.418-.761-1.62-1.561-3.219-2.184-4.9-.608-1.644-.906-1.771-2.1-.79-1.189-.981-1.487-.855-2.1.79-.623,1.683-1.423,3.281-2.183,4.9-.091.195-.191.44-.419.418-.709-.072-1.439.082-2-.659a53.066,53.066,0,0,0-5.185-5.707c-.982-.957-1.355-.913-2.033.3a.906.906,0,0,0-.054.1c-.573,1.41-1.164,2.812-1.711,4.231-.681,1.766-.443,1.748-2.638,1.74a1.269,1.269,0,0,1-1.111-.57,36.62,36.62,0,0,0-3.031-3.5c-.888-.97-1.8-1.916-2.714-2.86-.452-.468-.815-.47-1.073-.043a50.19,50.19,0,0,0-3.134,6.158c-.074.172-.122.362-.325.448a3.745,3.745,0,0,1-2.218-.464c-.6-.688-1.176-1.4-1.774-2.092a62.83,62.83,0,0,0-4.389-4.575c-.435-.41-.6-.369-.933.14-.5.764-.877,1.6-1.307,2.406a26.3,26.3,0,0,1-2.116,3.38.608.608,0,0,1-.645.257,5.759,5.759,0,0,0-1.766,0,.621.621,0,0,1-.612-.21c-1.04-1.139-2.089-2.27-3.121-3.415a29.868,29.868,0,0,0-2.473-2.916c-.535-.461-.689-.476-1.148.055a2.567,2.567,0,0,0-.264.373c-1.138,1.913-2.162,3.894-3.386,5.758-.017.022-.035.043-.053.063a1.5,1.5,0,0,1-2.117.117c-.55-.635-1.047-1.311-1.629-1.909a38.944,38.944,0,0,1-4.475-5.1c-.467-.683-.531-.669-1.048-.028-.924,1.146-1.452,2.537-2.425,3.666s-1.436,2.6-2.461,3.7a1.2,1.2,0,0,1-1.883-.019,48.2,48.2,0,0,0-3.486-3.831,22.73,22.73,0,0,1-2.98-3.137c-.289-.382-.528-.435-.913-.085a14.361,14.361,0,0,0-2.373,3.133c-.85,1.353-1.682,2.712-2.515,4.072-.116.19-.232.347-.483.334-.722-.038-1.446-.067-2.167-.116a1.071,1.071,0,0,1-.745-.486c-1.184-1.467-2.351-2.948-3.563-4.391-.746-.89-1.552-1.73-2.353-2.571-.205-.215-.492-.543-.793-.1-.8,1.165-1.8,2.17-2.54,3.379-.685,1.123-1.559,2.119-2.252,3.231a2.217,2.217,0,0,1-2.373,1.129,1.217,1.217,0,0,1-.89-.416c-.77-.922-1.55-1.835-2.317-2.757-.6-.717-1.3-1.335-1.917-2.034-.479-.539-1.126-.951-1.627-1.492-.862-.935-1.005-1.476-2.08.163-.021.032-.043.062-.064.095-1.156,1.8-2.694,3.3-3.95,5.021a2.664,2.664,0,0,1-2.749,1.363,1.624,1.624,0,0,1-.989-.453c-2.23-2.19-4.269-4.565-6.558-6.7a.775.775,0,0,0-.114-.125.749.749,0,0,0-1.056.069,2.806,2.806,0,0,0-.409.391c-.7.923-1.389,1.853-2.081,2.781a13.988,13.988,0,0,1-1.782,2.083l.062,3.661c1.961,0,3.921.011,5.883.007.34,0,.682-.021,1.024-.052a18.492,18.492,0,0,1,3.075-.15,23.354,23.354,0,0,0,2.738.093,13.6,13.6,0,0,1,1.65-.069,30.518,30.518,0,0,0,3.837.135,105.827,105.827,0,0,1,12.906.109c1.447.122,2.9.067,4.341.114a22.353,22.353,0,0,0,4.451-.178,26.411,26.411,0,0,1,6.785-.177c3.279.3,6.549-.053,9.818-.027,1.077.008,2.157.1,3.233.028.992-.069,1.978.1,2.965.005,1.309-.12,2.615-.268,3.933-.259,1.581.012,3.17.1,4.742-.02a23.721,23.721,0,0,1,4.1-.16c1.353.126,2.7-.117,4.053-.106,1.223.01,2.444.06,3.655-.048a19.725,19.725,0,0,1,3.248.069,47.151,47.151,0,0,0,5.92.371,44.191,44.191,0,0,1,4.736.208,8.807,8.807,0,0,0,1.428.1,20.361,20.361,0,0,1,3.25.092,74.745,74.745,0,0,0,8.053.236c.7-.03,1.408-.047,2.113-.066,2.516-.07,5.026.213,7.545.139,1.5-.044,3-.011,4.506.016,1.388.024,2.775.063,4.164.061v.037c.271-.028.544-.031.816-.046.347-.021.695-.036,1.043-.037s.7.016,1.043.037c.272.015.545.018.816.046v-.037c1.389,0,2.776-.036,4.164-.061,1.5-.027,3.006-.06,4.506-.016,2.519.074,5.028-.209,7.545-.139.7.019,1.409.036,2.113.066a74.73,74.73,0,0,0,8.052-.236,20.364,20.364,0,0,1,3.25-.092,8.807,8.807,0,0,0,1.428-.1,44.2,44.2,0,0,1,4.736-.208,47.142,47.142,0,0,0,5.92-.371,19.733,19.733,0,0,1,3.249-.069c1.21.108,2.431.058,3.654.048,1.353-.011,2.7.232,4.053.106a23.721,23.721,0,0,1,4.1.16c1.572.125,3.161.032,4.743.02,1.317-.009,2.623.139,3.932.259.987.093,1.973-.074,2.965-.005,1.075.075,2.155-.02,3.232-.028,3.269-.026,6.54.323,9.819.027a26.405,26.405,0,0,1,6.784.177,22.357,22.357,0,0,0,4.451.178c1.445-.047,2.895.008,4.341-.114a105.828,105.828,0,0,1,12.906-.109,30.518,30.518,0,0,0,3.837-.135,13.593,13.593,0,0,1,1.65.069,23.354,23.354,0,0,0,2.738-.093,18.492,18.492,0,0,1,3.075.15c.342.03.683.052,1.024.052,1.961,0,3.923,0,5.883-.007l.062-3.661A14.033,14.033,0,0,1,434.086,299.007Z" transform="translate(-175.724 -294.705)" fill="#004886"/>
            <path id="Path_9150-4" data-name="Path 9150" d="M479.473,300.972a1.665,1.665,0,0,0,.261.014,2.889,2.889,0,0,0,.565-.074c.989-.2,1.122-.364,1.167-1.351.049-1.117-.375-1.6-1.553-1.758a1.564,1.564,0,0,0-1.928,1.085c-.011.04-.021.081-.029.122A1.755,1.755,0,0,0,479.473,300.972Z" transform="translate(-248.276 -295.434)" fill="#004886"/>
            <path id="Path_9151-4" data-name="Path 9151" d="M499.2,300.445a3.575,3.575,0,0,0,1.424.375c.938.024,1.329-.35,1.436-1.369a1.643,1.643,0,0,0-1.473-1.736c-1.15-.088-2.116.333-2.122,1.56A1.14,1.14,0,0,0,499.2,300.445Z" transform="translate(-253.202 -295.425)" fill="#004886"/>
            <path id="Path_9152-4" data-name="Path 9152" d="M403.8,300.776a1.335,1.335,0,0,0,.412,0c.761-.008,1.725-1.213,1.721-2.145a1.268,1.268,0,0,0-1.31-1.223l-.057,0a1.747,1.747,0,0,0-1.886,1.6,1.766,1.766,0,0,0,0,.229A1.346,1.346,0,0,0,403.8,300.776Z" transform="translate(-230.203 -295.353)" fill="#004886"/>
            <path id="Path_9153-4" data-name="Path 9153" d="M370.913,302.652a1.281,1.281,0,0,0,.7-.445,2.644,2.644,0,0,0,.682-1.548,1.48,1.48,0,0,0-.457-1.23,1.1,1.1,0,0,0-1.5-.042,2.338,2.338,0,0,0-.969,2.326A1.281,1.281,0,0,0,370.913,302.652Z" transform="translate(-222.202 -295.762)" fill="#004886"/>
            <path id="Path_9154-4" data-name="Path 9154" d="M421.564,299.889a1.409,1.409,0,0,0,1.546-1.257,1.524,1.524,0,0,0,.007-.186c.008-.9-.621-1.766-1.289-1.784a2.357,2.357,0,0,0-1.964,1.936C419.853,299.358,420.506,299.855,421.564,299.889Z" transform="translate(-234.334 -295.175)" fill="#004886"/>
            <path id="Path_9155-4" data-name="Path 9155" d="M459.941,301.5a1.494,1.494,0,0,0,1.538-1.361c0-.8-.733-1.362-1.734-1.337a1.825,1.825,0,0,0-1.565,1.562C458.207,300.957,459.064,301.511,459.941,301.5Z" transform="translate(-243.532 -295.687)" fill="#004886"/>
            <path id="Path_9156-4" data-name="Path 9156" d="M354.808,301.923a2.046,2.046,0,0,0,1.7-2.053,1,1,0,0,0-.967-1.034c-.03,0-.06,0-.09,0a1.957,1.957,0,0,0-1.8,1.945A1.273,1.273,0,0,0,354.808,301.923Z" transform="translate(-218.437 -295.696)" fill="#004886"/>
            <path id="Path_9157-4" data-name="Path 9157" d="M387.361,301.065a1.731,1.731,0,0,0,1.7-1.657,1.262,1.262,0,0,0-1.239-1.233,2.524,2.524,0,0,0-1.663,1.838A1.186,1.186,0,0,0,387.361,301.065Z" transform="translate(-226.242 -295.538)" fill="#004886"/>
            <path id="Path_9158-4" data-name="Path 9158" d="M439.614,299.961a1.758,1.758,0,0,0,1.46-1.463,1.5,1.5,0,0,0-1.375-1.35,1.468,1.468,0,0,0-1.287,1.481A1.322,1.322,0,0,0,439.614,299.961Z" transform="translate(-238.786 -295.291)" fill="#004886"/>
          </g>
        </g>
      </g>
      <g id="Group_101191" data-name="Group 101191" transform="translate(1038 769.115)">
        <g id="Group_101188-2" data-name="Group 101188" transform="translate(519)">
          <g id="Group_101186-3" data-name="Group 101186" transform="translate(259 0)">
            <path id="Path_9140-5" data-name="Path 9140" d="M213.549,300.911a2.889,2.889,0,0,1-.565.074,1.674,1.674,0,0,1-.261-.014,1.755,1.755,0,0,1-1.518-1.963c.008-.041.018-.082.029-.122a1.566,1.566,0,0,1,1.929-1.085c1.179.163,1.6.641,1.553,1.758C214.67,300.547,214.537,300.707,213.549,300.911Z" transform="translate(18.474 -295.434)" fill="#004886"/>
            <path id="Path_9141-5" data-name="Path 9141" d="M192.736,300.82a3.579,3.579,0,0,1-1.424-.375,1.141,1.141,0,0,1-.734-1.17c.005-1.227.971-1.648,2.122-1.56a1.643,1.643,0,0,1,1.473,1.736C194.065,300.471,193.673,300.844,192.736,300.82Z" transform="translate(54.685 -295.425)" fill="#004886"/>
            <path id="Path_9142-5" data-name="Path 9142" d="M288.359,300.776a1.346,1.346,0,0,1-1.536-1.537,1.645,1.645,0,0,1,0-.229,1.747,1.747,0,0,1,1.885-1.6l.057,0a1.268,1.268,0,0,1,1.31,1.223C290.084,299.563,289.119,300.767,288.359,300.776Z" transform="translate(-114.352 -295.353)" fill="#004886"/>
            <path id="Path_9143-5" data-name="Path 9143" d="M322.119,302.652a1.281,1.281,0,0,1-1.549-.939,2.339,2.339,0,0,1,.968-2.326,1.1,1.1,0,0,1,1.5.042,1.482,1.482,0,0,1,.457,1.23,2.644,2.644,0,0,1-.682,1.548A1.284,1.284,0,0,1,322.119,302.652Z" transform="translate(-173.408 -295.762)" fill="#004886"/>
            <path id="Path_9144-5" data-name="Path 9144" d="M271.326,299.889c-1.058-.033-1.711-.53-1.7-1.291a2.357,2.357,0,0,1,1.964-1.936c.668.017,1.3.888,1.289,1.784a1.53,1.53,0,0,1-.007.186A1.41,1.41,0,0,1,271.326,299.889Z" transform="translate(-84.095 -295.175)" fill="#004886"/>
            <path id="Path_9145-5" data-name="Path 9145" d="M233.013,301.5c-.876.016-1.733-.539-1.761-1.135a1.825,1.825,0,0,1,1.565-1.562c1-.025,1.733.539,1.733,1.337A1.493,1.493,0,0,1,233.013,301.5Z" transform="translate(-16.605 -295.687)" fill="#004886"/>
            <path id="Path_9146-5" data-name="Path 9146" d="M337.527,301.923a1.273,1.273,0,0,1-1.161-1.141,1.957,1.957,0,0,1,1.8-1.945c.03,0,.059,0,.09,0a1,1,0,0,1,.967,1.034A2.044,2.044,0,0,1,337.527,301.923Z" transform="translate(-201.157 -295.696)" fill="#004886"/>
            <path id="Path_9147-5" data-name="Path 9147" d="M305,301.065a1.186,1.186,0,0,1-1.2-1.053,2.524,2.524,0,0,1,1.663-1.838,1.26,1.26,0,0,1,1.239,1.233A1.731,1.731,0,0,1,305,301.065Z" transform="translate(-143.877 -295.538)" fill="#004886"/>
            <path id="Path_9148-5" data-name="Path 9148" d="M253.062,299.961a1.323,1.323,0,0,1-1.2-1.332,1.468,1.468,0,0,1,1.288-1.481,1.5,1.5,0,0,1,1.375,1.35A1.757,1.757,0,0,1,253.062,299.961Z" transform="translate(-52.234 -295.291)" fill="#004886"/>
            <path id="Path_9149-5" data-name="Path 9149" d="M177.506,299.007c.692-.929,1.384-1.859,2.081-2.781a2.814,2.814,0,0,1,.41-.391.748.748,0,0,1,1.169.056c2.29,2.132,4.329,4.507,6.559,6.7a1.624,1.624,0,0,0,.989.453,2.665,2.665,0,0,0,2.749-1.363c1.256-1.718,2.794-3.22,3.95-5.021.021-.033.043-.063.064-.095,1.075-1.638,1.217-1.1,2.08-.163.5.542,1.148.954,1.627,1.492.62.7,1.319,1.317,1.916,2.034.768.923,1.548,1.835,2.318,2.757a1.216,1.216,0,0,0,.889.416,2.218,2.218,0,0,0,2.373-1.129c.692-1.112,1.567-2.108,2.252-3.231.739-1.209,1.744-2.214,2.54-3.379.3-.441.588-.113.793.1.8.841,1.607,1.681,2.353,2.571,1.211,1.443,2.378,2.924,3.563,4.391a1.07,1.07,0,0,0,.745.486c.721.049,1.445.078,2.167.116.249.013.366-.144.483-.334.834-1.36,1.666-2.719,2.515-4.072a14.36,14.36,0,0,1,2.372-3.133c.385-.35.625-.3.913.085a22.681,22.681,0,0,0,2.98,3.137,48.369,48.369,0,0,1,3.486,3.831,1.2,1.2,0,0,0,1.882.019c1.026-1.1,1.488-2.575,2.461-3.7s1.5-2.52,2.425-3.666c.518-.641.582-.655,1.048.028a38.95,38.95,0,0,0,4.475,5.1c.582.6,1.079,1.274,1.629,1.909a1.5,1.5,0,0,0,2.118-.117c.018-.021.036-.041.053-.063,1.224-1.864,2.249-3.845,3.386-5.758a2.56,2.56,0,0,1,.264-.373c.46-.532.614-.516,1.149-.055a29.863,29.863,0,0,1,2.473,2.916c1.032,1.145,2.081,2.276,3.12,3.415a.622.622,0,0,0,.612.21,5.764,5.764,0,0,1,1.767,0,.607.607,0,0,0,.644-.257,26.233,26.233,0,0,0,2.116-3.38c.43-.8.808-1.641,1.306-2.406.334-.509.5-.55.933-.14a62.508,62.508,0,0,1,4.389,4.575c.6.692,1.173,1.4,1.774,2.092a3.744,3.744,0,0,0,2.218.464c.2-.085.251-.276.324-.448a50.088,50.088,0,0,1,3.135-6.158c.258-.427.62-.425,1.073.043.914.945,1.827,1.891,2.714,2.86a36.5,36.5,0,0,1,3.03,3.5,1.27,1.27,0,0,0,1.112.57c2.195.008,1.957.026,2.638-1.74.546-1.42,1.138-2.822,1.711-4.231a.794.794,0,0,1,.054-.1c.678-1.216,1.051-1.26,2.032-.3a53.083,53.083,0,0,1,5.186,5.707c.565.741,1.295.587,2,.659.228.022.328-.223.419-.418.761-1.62,1.561-3.219,2.184-4.9.608-1.644.906-1.771,2.1-.79,1.189-.981,1.487-.855,2.1.79.623,1.683,1.423,3.281,2.183,4.9.091.195.191.44.419.418.709-.072,1.439.082,2-.659a53.066,53.066,0,0,1,5.185-5.707c.982-.957,1.355-.913,2.033.3a.906.906,0,0,1,.054.1c.573,1.41,1.164,2.812,1.711,4.231.681,1.766.443,1.748,2.638,1.74a1.269,1.269,0,0,0,1.111-.57,36.62,36.62,0,0,1,3.031-3.5c.888-.97,1.8-1.916,2.714-2.86.452-.468.815-.47,1.073-.043a50.19,50.19,0,0,1,3.134,6.158c.074.172.122.362.325.448a3.745,3.745,0,0,0,2.218-.464c.6-.688,1.176-1.4,1.774-2.092a62.83,62.83,0,0,1,4.389-4.575c.435-.41.6-.369.933.14.5.764.877,1.6,1.307,2.406a26.3,26.3,0,0,0,2.116,3.38.608.608,0,0,0,.645.257,5.759,5.759,0,0,1,1.766,0,.621.621,0,0,0,.612-.21c1.04-1.139,2.089-2.27,3.121-3.415a29.868,29.868,0,0,1,2.473-2.916c.535-.461.689-.476,1.148.055a2.567,2.567,0,0,1,.264.373c1.138,1.913,2.162,3.894,3.386,5.758.017.022.035.043.053.063a1.5,1.5,0,0,0,2.117.117c.55-.635,1.047-1.311,1.629-1.909a38.944,38.944,0,0,0,4.475-5.1c.467-.683.531-.669,1.048-.028.924,1.146,1.452,2.537,2.425,3.666s1.436,2.6,2.461,3.7a1.2,1.2,0,0,0,1.883-.019,48.211,48.211,0,0,1,3.486-3.831,22.73,22.73,0,0,0,2.98-3.137c.289-.382.528-.435.913-.085a14.361,14.361,0,0,1,2.373,3.133c.85,1.353,1.682,2.712,2.515,4.072.116.19.233.347.483.334.722-.038,1.446-.067,2.167-.116a1.071,1.071,0,0,0,.745-.486c1.184-1.467,2.351-2.948,3.563-4.391.746-.89,1.552-1.73,2.353-2.571.205-.215.492-.543.793-.1.8,1.165,1.8,2.17,2.54,3.379.685,1.123,1.559,2.119,2.252,3.231a2.217,2.217,0,0,0,2.373,1.129,1.217,1.217,0,0,0,.89-.416c.77-.922,1.55-1.835,2.317-2.757.6-.717,1.3-1.335,1.917-2.034.479-.539,1.126-.951,1.627-1.492.862-.935,1.005-1.476,2.08.163.021.032.043.062.064.095,1.156,1.8,2.694,3.3,3.95,5.021a2.664,2.664,0,0,0,2.749,1.363,1.624,1.624,0,0,0,.989-.453c2.23-2.19,4.269-4.565,6.558-6.7a.776.776,0,0,1,.114-.125.749.749,0,0,1,1.056.069,2.806,2.806,0,0,1,.409.391c.7.923,1.389,1.853,2.081,2.781a13.986,13.986,0,0,0,1.782,2.083l-.062,3.661c-1.961,0-3.921.011-5.883.007-.34,0-.682-.021-1.024-.052a18.492,18.492,0,0,0-3.075-.15,23.355,23.355,0,0,1-2.738.093,13.606,13.606,0,0,0-1.65-.069,30.518,30.518,0,0,1-3.837.135,105.827,105.827,0,0,0-12.906.109c-1.447.122-2.9.067-4.342.114a22.353,22.353,0,0,1-4.451-.178,26.411,26.411,0,0,0-6.785-.177c-3.279.3-6.549-.053-9.818-.027-1.077.008-2.157.1-3.233.028-.992-.069-1.978.1-2.965.005-1.309-.12-2.615-.268-3.933-.259-1.581.012-3.17.1-4.742-.02a23.721,23.721,0,0,0-4.1-.16c-1.353.126-2.7-.117-4.053-.106-1.223.01-2.444.06-3.655-.048a19.728,19.728,0,0,0-3.248.069,47.151,47.151,0,0,1-5.92.371,44.191,44.191,0,0,0-4.736.208,8.807,8.807,0,0,1-1.428.1,20.361,20.361,0,0,0-3.25.092,74.745,74.745,0,0,1-8.053.236c-.7-.03-1.408-.047-2.113-.066-2.516-.07-5.026.213-7.545.139-1.5-.044-3-.011-4.506.016-1.388.024-2.775.063-4.164.061v.037c-.271-.028-.544-.031-.816-.046-.347-.021-.695-.036-1.043-.037s-.7.016-1.043.037c-.272.015-.545.018-.816.046v-.037c-1.389,0-2.776-.036-4.164-.061-1.5-.027-3.006-.06-4.506-.016-2.519.074-5.028-.209-7.545-.139-.7.019-1.409.036-2.113.066a74.73,74.73,0,0,1-8.052-.236,20.364,20.364,0,0,0-3.25-.092,8.807,8.807,0,0,1-1.428-.1,44.2,44.2,0,0,0-4.736-.208,47.142,47.142,0,0,1-5.92-.371,19.737,19.737,0,0,0-3.249-.069c-1.21.108-2.431.058-3.654.048-1.353-.011-2.7.232-4.053.106a23.721,23.721,0,0,0-4.1.16c-1.572.125-3.161.032-4.743.02-1.317-.009-2.623.139-3.932.259-.987.093-1.973-.074-2.965-.005-1.075.075-2.155-.02-3.232-.028-3.269-.026-6.54.323-9.819.027a26.4,26.4,0,0,0-6.784.177,22.358,22.358,0,0,1-4.451.178c-1.445-.047-2.895.008-4.341-.114a105.828,105.828,0,0,0-12.906-.109,30.518,30.518,0,0,1-3.837-.135,13.592,13.592,0,0,0-1.65.069,23.354,23.354,0,0,1-2.738-.093,18.492,18.492,0,0,0-3.075.15c-.342.03-.683.052-1.024.052-1.961,0-3.923,0-5.883-.007l-.062-3.661A14.033,14.033,0,0,0,177.506,299.007Z" transform="translate(-175.724 -294.705)" fill="#004886"/>
            <path id="Path_9150-5" data-name="Path 9150" d="M479.936,300.972a1.665,1.665,0,0,1-.261.014,2.89,2.89,0,0,1-.565-.074c-.989-.2-1.122-.364-1.167-1.351-.049-1.117.375-1.6,1.553-1.758a1.564,1.564,0,0,1,1.928,1.085c.011.04.021.081.029.122A1.755,1.755,0,0,1,479.936,300.972Z" transform="translate(-450.989 -295.434)" fill="#004886"/>
            <path id="Path_9151-5" data-name="Path 9151" d="M501.322,300.445a3.575,3.575,0,0,1-1.424.375c-.938.024-1.329-.35-1.436-1.369a1.643,1.643,0,0,1,1.473-1.736c1.15-.088,2.116.333,2.122,1.56A1.14,1.14,0,0,1,501.322,300.445Z" transform="translate(-487.175 -295.425)" fill="#004886"/>
            <path id="Path_9152-5" data-name="Path 9152" d="M404.792,300.776a1.335,1.335,0,0,1-.412,0c-.761-.008-1.725-1.213-1.721-2.145a1.268,1.268,0,0,1,1.31-1.223l.057,0a1.747,1.747,0,0,1,1.886,1.6,1.766,1.766,0,0,1,0,.229A1.346,1.346,0,0,1,404.792,300.776Z" transform="translate(-318.244 -295.353)" fill="#004886"/>
            <path id="Path_9153-5" data-name="Path 9153" d="M370.715,302.652a1.281,1.281,0,0,1-.7-.445,2.644,2.644,0,0,1-.682-1.548,1.48,1.48,0,0,1,.457-1.23,1.1,1.1,0,0,1,1.5-.042,2.338,2.338,0,0,1,.969,2.326A1.281,1.281,0,0,1,370.715,302.652Z" transform="translate(-259.282 -295.762)" fill="#004886"/>
            <path id="Path_9154-5" data-name="Path 9154" d="M421.419,299.889a1.409,1.409,0,0,1-1.546-1.257,1.524,1.524,0,0,1-.007-.186c-.008-.9.621-1.766,1.289-1.784a2.357,2.357,0,0,1,1.964,1.936C423.13,299.358,422.476,299.855,421.419,299.889Z" transform="translate(-348.505 -295.175)" fill="#004886"/>
            <path id="Path_9155-5" data-name="Path 9155" d="M459.717,301.5a1.494,1.494,0,0,1-1.538-1.361c0-.8.733-1.362,1.734-1.337a1.825,1.825,0,0,1,1.565,1.562C461.451,300.957,460.594,301.511,459.717,301.5Z" transform="translate(-415.982 -295.687)" fill="#004886"/>
            <path id="Path_9156-5" data-name="Path 9156" d="M355.343,301.923a2.046,2.046,0,0,1-1.7-2.053,1,1,0,0,1,.967-1.034c.03,0,.06,0,.09,0a1.957,1.957,0,0,1,1.8,1.945A1.273,1.273,0,0,1,355.343,301.923Z" transform="translate(-231.57 -295.696)" fill="#004886"/>
            <path id="Path_9157-5" data-name="Path 9157" d="M387.86,301.065a1.731,1.731,0,0,1-1.7-1.657,1.262,1.262,0,0,1,1.239-1.233,2.524,2.524,0,0,1,1.663,1.838A1.186,1.186,0,0,1,387.86,301.065Z" transform="translate(-288.835 -295.538)" fill="#004886"/>
            <path id="Path_9158-5" data-name="Path 9158" d="M439.871,299.961a1.758,1.758,0,0,1-1.46-1.463,1.5,1.5,0,0,1,1.375-1.35,1.468,1.468,0,0,1,1.287,1.481A1.322,1.322,0,0,1,439.871,299.961Z" transform="translate(-380.555 -295.291)" fill="#004886"/>
          </g>
          <g id="Group_101187-3" data-name="Group 101187" transform="translate(0)">
            <path id="Path_9140-6" data-name="Path 9140" d="M212.36,300.911a2.889,2.889,0,0,0,.565.074,1.674,1.674,0,0,0,.261-.014,1.755,1.755,0,0,0,1.518-1.963c-.008-.041-.018-.082-.029-.122a1.566,1.566,0,0,0-1.929-1.085c-1.179.163-1.6.641-1.553,1.758C211.239,300.547,211.371,300.707,212.36,300.911Z" transform="translate(-184.238 -295.434)" fill="#004886"/>
            <path id="Path_9141-6" data-name="Path 9141" d="M192.012,300.82a3.579,3.579,0,0,0,1.424-.375,1.141,1.141,0,0,0,.734-1.17c-.005-1.227-.971-1.648-2.122-1.56a1.643,1.643,0,0,0-1.473,1.736C190.682,300.471,191.074,300.844,192.012,300.82Z" transform="translate(-179.289 -295.425)" fill="#004886"/>
            <path id="Path_9142-6" data-name="Path 9142" d="M288.527,300.776a1.346,1.346,0,0,0,1.536-1.537,1.645,1.645,0,0,0,0-.229,1.747,1.747,0,0,0-1.885-1.6l-.057,0a1.268,1.268,0,0,0-1.31,1.223C286.8,299.563,287.768,300.767,288.527,300.776Z" transform="translate(-202.391 -295.353)" fill="#004886"/>
            <path id="Path_9143-6" data-name="Path 9143" d="M321.921,302.652a1.281,1.281,0,0,0,1.549-.939,2.339,2.339,0,0,0-.968-2.326,1.1,1.1,0,0,0-1.5.042,1.482,1.482,0,0,0-.457,1.23,2.644,2.644,0,0,0,.682,1.548A1.284,1.284,0,0,0,321.921,302.652Z" transform="translate(-210.488 -295.762)" fill="#004886"/>
            <path id="Path_9144-6" data-name="Path 9144" d="M271.18,299.889c1.058-.033,1.711-.53,1.7-1.291a2.357,2.357,0,0,0-1.964-1.936c-.668.017-1.3.888-1.289,1.784a1.53,1.53,0,0,0,.007.186A1.41,1.41,0,0,0,271.18,299.889Z" transform="translate(-198.267 -295.175)" fill="#004886"/>
            <path id="Path_9145-6" data-name="Path 9145" d="M232.79,301.5c.876.016,1.733-.539,1.761-1.135a1.825,1.825,0,0,0-1.565-1.562c-1-.025-1.733.539-1.733,1.337A1.493,1.493,0,0,0,232.79,301.5Z" transform="translate(-189.054 -295.687)" fill="#004886"/>
            <path id="Path_9146-6" data-name="Path 9146" d="M338.061,301.923a1.273,1.273,0,0,0,1.161-1.141,1.957,1.957,0,0,0-1.8-1.945c-.03,0-.059,0-.09,0a1,1,0,0,0-.967,1.034A2.044,2.044,0,0,0,338.061,301.923Z" transform="translate(-214.289 -295.696)" fill="#004886"/>
            <path id="Path_9147-6" data-name="Path 9147" d="M305.494,301.065a1.186,1.186,0,0,0,1.2-1.053,2.524,2.524,0,0,0-1.663-1.838,1.26,1.26,0,0,0-1.239,1.233A1.731,1.731,0,0,0,305.494,301.065Z" transform="translate(-206.469 -295.538)" fill="#004886"/>
            <path id="Path_9148-6" data-name="Path 9148" d="M253.317,299.961a1.323,1.323,0,0,0,1.2-1.332,1.468,1.468,0,0,0-1.288-1.481,1.5,1.5,0,0,0-1.375,1.35A1.757,1.757,0,0,0,253.317,299.961Z" transform="translate(-194.001 -295.291)" fill="#004886"/>
            <path id="Path_9149-6" data-name="Path 9149" d="M434.086,299.007c-.692-.929-1.384-1.859-2.081-2.781a2.811,2.811,0,0,0-.41-.391.748.748,0,0,0-1.169.056c-2.29,2.132-4.329,4.507-6.559,6.7a1.624,1.624,0,0,1-.989.453,2.665,2.665,0,0,1-2.749-1.363c-1.256-1.718-2.794-3.22-3.95-5.021-.021-.033-.043-.063-.064-.095-1.074-1.638-1.217-1.1-2.08-.163-.5.542-1.148.954-1.627,1.492-.62.7-1.319,1.317-1.916,2.034-.768.923-1.548,1.835-2.318,2.757a1.216,1.216,0,0,1-.889.416,2.218,2.218,0,0,1-2.373-1.129c-.692-1.112-1.567-2.108-2.252-3.231-.739-1.209-1.744-2.214-2.54-3.379-.3-.441-.588-.113-.793.1-.8.841-1.607,1.681-2.353,2.571-1.211,1.443-2.378,2.924-3.563,4.391a1.07,1.07,0,0,1-.745.486c-.721.049-1.445.078-2.167.116-.249.013-.366-.144-.483-.334-.834-1.36-1.666-2.719-2.515-4.072a14.36,14.36,0,0,0-2.372-3.133c-.385-.35-.625-.3-.913.085a22.683,22.683,0,0,1-2.98,3.137,48.369,48.369,0,0,0-3.486,3.831,1.2,1.2,0,0,1-1.882.019c-1.026-1.1-1.488-2.575-2.461-3.7s-1.5-2.52-2.425-3.666c-.518-.641-.582-.655-1.048.028a38.95,38.95,0,0,1-4.475,5.1c-.582.6-1.079,1.274-1.629,1.909a1.5,1.5,0,0,1-2.118-.117c-.018-.021-.036-.041-.053-.063-1.224-1.864-2.249-3.845-3.386-5.758a2.56,2.56,0,0,0-.264-.373c-.46-.532-.614-.516-1.149-.055a29.863,29.863,0,0,0-2.473,2.916c-1.032,1.145-2.081,2.276-3.12,3.415a.622.622,0,0,1-.612.21,5.764,5.764,0,0,0-1.767,0,.607.607,0,0,1-.644-.257,26.233,26.233,0,0,1-2.116-3.38c-.43-.8-.808-1.641-1.306-2.406-.334-.509-.5-.55-.933-.14a62.508,62.508,0,0,0-4.389,4.575c-.6.692-1.173,1.4-1.774,2.092a3.744,3.744,0,0,1-2.218.464c-.2-.085-.251-.276-.324-.448a50.088,50.088,0,0,0-3.135-6.158c-.258-.427-.62-.425-1.073.043-.914.945-1.827,1.891-2.714,2.86a36.5,36.5,0,0,0-3.03,3.5,1.27,1.27,0,0,1-1.112.57c-2.195.008-1.957.026-2.638-1.74-.546-1.42-1.138-2.822-1.711-4.231a.794.794,0,0,0-.054-.1c-.678-1.216-1.051-1.26-2.032-.3a53.083,53.083,0,0,0-5.186,5.707c-.565.741-1.295.587-2,.659-.228.022-.328-.223-.419-.418-.761-1.62-1.561-3.219-2.184-4.9-.608-1.644-.906-1.771-2.1-.79-1.189-.981-1.487-.855-2.1.79-.623,1.683-1.423,3.281-2.183,4.9-.091.195-.191.44-.419.418-.709-.072-1.439.082-2-.659a53.066,53.066,0,0,0-5.185-5.707c-.982-.957-1.355-.913-2.033.3a.906.906,0,0,0-.054.1c-.573,1.41-1.164,2.812-1.711,4.231-.681,1.766-.443,1.748-2.638,1.74a1.269,1.269,0,0,1-1.111-.57,36.62,36.62,0,0,0-3.031-3.5c-.888-.97-1.8-1.916-2.714-2.86-.452-.468-.815-.47-1.073-.043a50.19,50.19,0,0,0-3.134,6.158c-.074.172-.122.362-.325.448a3.745,3.745,0,0,1-2.218-.464c-.6-.688-1.176-1.4-1.774-2.092a62.83,62.83,0,0,0-4.389-4.575c-.435-.41-.6-.369-.933.14-.5.764-.877,1.6-1.307,2.406a26.3,26.3,0,0,1-2.116,3.38.608.608,0,0,1-.645.257,5.759,5.759,0,0,0-1.766,0,.621.621,0,0,1-.612-.21c-1.04-1.139-2.089-2.27-3.121-3.415a29.868,29.868,0,0,0-2.473-2.916c-.535-.461-.689-.476-1.148.055a2.567,2.567,0,0,0-.264.373c-1.138,1.913-2.162,3.894-3.386,5.758-.017.022-.035.043-.053.063a1.5,1.5,0,0,1-2.117.117c-.55-.635-1.047-1.311-1.629-1.909a38.944,38.944,0,0,1-4.475-5.1c-.467-.683-.531-.669-1.048-.028-.924,1.146-1.452,2.537-2.425,3.666s-1.436,2.6-2.461,3.7a1.2,1.2,0,0,1-1.883-.019,48.2,48.2,0,0,0-3.486-3.831,22.728,22.728,0,0,1-2.98-3.137c-.289-.382-.528-.435-.913-.085a14.361,14.361,0,0,0-2.373,3.133c-.85,1.353-1.682,2.712-2.515,4.072-.116.19-.232.347-.483.334-.722-.038-1.446-.067-2.167-.116a1.071,1.071,0,0,1-.745-.486c-1.184-1.467-2.351-2.948-3.563-4.391-.746-.89-1.552-1.73-2.353-2.571-.205-.215-.492-.543-.793-.1-.8,1.165-1.8,2.17-2.54,3.379-.685,1.123-1.559,2.119-2.252,3.231a2.217,2.217,0,0,1-2.373,1.129,1.217,1.217,0,0,1-.89-.416c-.77-.922-1.55-1.835-2.317-2.757-.6-.717-1.3-1.335-1.917-2.034-.479-.539-1.126-.951-1.627-1.492-.862-.935-1.005-1.476-2.08.163-.021.032-.043.062-.064.095-1.156,1.8-2.694,3.3-3.95,5.021a2.664,2.664,0,0,1-2.749,1.363,1.624,1.624,0,0,1-.989-.453c-2.23-2.19-4.269-4.565-6.558-6.7a.775.775,0,0,0-.114-.125.749.749,0,0,0-1.056.069,2.806,2.806,0,0,0-.409.391c-.7.923-1.389,1.853-2.081,2.781a13.988,13.988,0,0,1-1.782,2.083l.062,3.661c1.961,0,3.921.011,5.883.007.34,0,.682-.021,1.024-.052a18.492,18.492,0,0,1,3.075-.15,23.354,23.354,0,0,0,2.738.093,13.6,13.6,0,0,1,1.65-.069,30.518,30.518,0,0,0,3.837.135,105.827,105.827,0,0,1,12.906.109c1.447.122,2.9.067,4.341.114a22.353,22.353,0,0,0,4.451-.178,26.411,26.411,0,0,1,6.785-.177c3.279.3,6.549-.053,9.818-.027,1.077.008,2.157.1,3.233.028.992-.069,1.978.1,2.965.005,1.309-.12,2.615-.268,3.933-.259,1.581.012,3.17.1,4.742-.02a23.721,23.721,0,0,1,4.1-.16c1.353.126,2.7-.117,4.053-.106,1.223.01,2.444.06,3.655-.048a19.725,19.725,0,0,1,3.248.069,47.151,47.151,0,0,0,5.92.371,44.191,44.191,0,0,1,4.736.208,8.807,8.807,0,0,0,1.428.1,20.361,20.361,0,0,1,3.25.092,74.745,74.745,0,0,0,8.053.236c.7-.03,1.408-.047,2.113-.066,2.516-.07,5.026.213,7.545.139,1.5-.044,3-.011,4.506.016,1.388.024,2.775.063,4.164.061v.037c.271-.028.544-.031.816-.046.347-.021.695-.036,1.043-.037s.7.016,1.043.037c.272.015.545.018.816.046v-.037c1.389,0,2.776-.036,4.164-.061,1.5-.027,3.006-.06,4.506-.016,2.519.074,5.028-.209,7.545-.139.7.019,1.409.036,2.113.066a74.73,74.73,0,0,0,8.052-.236,20.364,20.364,0,0,1,3.25-.092,8.807,8.807,0,0,0,1.428-.1,44.2,44.2,0,0,1,4.736-.208,47.142,47.142,0,0,0,5.92-.371,19.733,19.733,0,0,1,3.249-.069c1.21.108,2.431.058,3.654.048,1.353-.011,2.7.232,4.053.106a23.721,23.721,0,0,1,4.1.16c1.572.125,3.161.032,4.743.02,1.317-.009,2.623.139,3.932.259.987.093,1.973-.074,2.965-.005,1.075.075,2.155-.02,3.232-.028,3.269-.026,6.54.323,9.819.027a26.4,26.4,0,0,1,6.784.177,22.358,22.358,0,0,0,4.451.178c1.445-.047,2.895.008,4.341-.114a105.828,105.828,0,0,1,12.906-.109,30.518,30.518,0,0,0,3.837-.135,13.592,13.592,0,0,1,1.65.069,23.354,23.354,0,0,0,2.738-.093,18.492,18.492,0,0,1,3.075.15c.342.03.683.052,1.024.052,1.961,0,3.923,0,5.883-.007l.062-3.661A14.033,14.033,0,0,1,434.086,299.007Z" transform="translate(-175.724 -294.705)" fill="#004886"/>
            <path id="Path_9150-6" data-name="Path 9150" d="M479.473,300.972a1.665,1.665,0,0,0,.261.014,2.889,2.889,0,0,0,.565-.074c.989-.2,1.122-.364,1.167-1.351.049-1.117-.375-1.6-1.553-1.758a1.564,1.564,0,0,0-1.928,1.085c-.011.04-.021.081-.029.122A1.755,1.755,0,0,0,479.473,300.972Z" transform="translate(-248.276 -295.434)" fill="#004886"/>
            <path id="Path_9151-6" data-name="Path 9151" d="M499.2,300.445a3.575,3.575,0,0,0,1.424.375c.938.024,1.329-.35,1.436-1.369a1.643,1.643,0,0,0-1.473-1.736c-1.15-.088-2.116.333-2.122,1.56A1.14,1.14,0,0,0,499.2,300.445Z" transform="translate(-253.202 -295.425)" fill="#004886"/>
            <path id="Path_9152-6" data-name="Path 9152" d="M403.8,300.776a1.335,1.335,0,0,0,.412,0c.761-.008,1.725-1.213,1.721-2.145a1.268,1.268,0,0,0-1.31-1.223l-.057,0a1.747,1.747,0,0,0-1.886,1.6,1.766,1.766,0,0,0,0,.229A1.346,1.346,0,0,0,403.8,300.776Z" transform="translate(-230.203 -295.353)" fill="#004886"/>
            <path id="Path_9153-6" data-name="Path 9153" d="M370.913,302.652a1.281,1.281,0,0,0,.7-.445,2.644,2.644,0,0,0,.682-1.548,1.48,1.48,0,0,0-.457-1.23,1.1,1.1,0,0,0-1.5-.042,2.338,2.338,0,0,0-.969,2.326A1.281,1.281,0,0,0,370.913,302.652Z" transform="translate(-222.202 -295.762)" fill="#004886"/>
            <path id="Path_9154-6" data-name="Path 9154" d="M421.564,299.889a1.409,1.409,0,0,0,1.546-1.257,1.524,1.524,0,0,0,.007-.186c.008-.9-.621-1.766-1.289-1.784a2.357,2.357,0,0,0-1.964,1.936C419.853,299.358,420.506,299.855,421.564,299.889Z" transform="translate(-234.334 -295.175)" fill="#004886"/>
            <path id="Path_9155-6" data-name="Path 9155" d="M459.941,301.5a1.494,1.494,0,0,0,1.538-1.361c0-.8-.733-1.362-1.734-1.337a1.825,1.825,0,0,0-1.565,1.562C458.207,300.957,459.064,301.511,459.941,301.5Z" transform="translate(-243.532 -295.687)" fill="#004886"/>
            <path id="Path_9156-6" data-name="Path 9156" d="M354.808,301.923a2.046,2.046,0,0,0,1.7-2.053,1,1,0,0,0-.967-1.034c-.03,0-.06,0-.09,0a1.957,1.957,0,0,0-1.8,1.945A1.273,1.273,0,0,0,354.808,301.923Z" transform="translate(-218.437 -295.696)" fill="#004886"/>
            <path id="Path_9157-6" data-name="Path 9157" d="M387.361,301.065a1.731,1.731,0,0,0,1.7-1.657,1.262,1.262,0,0,0-1.239-1.233,2.524,2.524,0,0,0-1.663,1.838A1.186,1.186,0,0,0,387.361,301.065Z" transform="translate(-226.242 -295.538)" fill="#004886"/>
            <path id="Path_9158-6" data-name="Path 9158" d="M439.614,299.961a1.758,1.758,0,0,0,1.46-1.463,1.5,1.5,0,0,0-1.375-1.35,1.468,1.468,0,0,0-1.287,1.481A1.322,1.322,0,0,0,439.614,299.961Z" transform="translate(-238.786 -295.291)" fill="#004886"/>
          </g>
        </g>
        <g id="Group_101189-2" data-name="Group 101189" transform="translate(0)">
          <g id="Group_101186-4" data-name="Group 101186" transform="translate(0 0)">
            <path id="Path_9140-7" data-name="Path 9140" d="M212.36,300.911a2.889,2.889,0,0,0,.565.074,1.674,1.674,0,0,0,.261-.014,1.755,1.755,0,0,0,1.518-1.963c-.008-.041-.018-.082-.029-.122a1.566,1.566,0,0,0-1.929-1.085c-1.179.163-1.6.641-1.553,1.758C211.239,300.547,211.371,300.707,212.36,300.911Z" transform="translate(-184.238 -295.434)" fill="#004886"/>
            <path id="Path_9141-7" data-name="Path 9141" d="M192.012,300.82a3.579,3.579,0,0,0,1.424-.375,1.141,1.141,0,0,0,.734-1.17c-.005-1.227-.971-1.648-2.122-1.56a1.643,1.643,0,0,0-1.473,1.736C190.682,300.471,191.075,300.844,192.012,300.82Z" transform="translate(-179.289 -295.425)" fill="#004886"/>
            <path id="Path_9142-7" data-name="Path 9142" d="M288.527,300.776a1.346,1.346,0,0,0,1.536-1.537,1.645,1.645,0,0,0,0-.229,1.747,1.747,0,0,0-1.885-1.6l-.057,0a1.268,1.268,0,0,0-1.31,1.223C286.8,299.563,287.768,300.767,288.527,300.776Z" transform="translate(-202.391 -295.353)" fill="#004886"/>
            <path id="Path_9143-7" data-name="Path 9143" d="M321.921,302.652a1.281,1.281,0,0,0,1.549-.939,2.339,2.339,0,0,0-.968-2.326,1.1,1.1,0,0,0-1.5.042,1.482,1.482,0,0,0-.457,1.23,2.644,2.644,0,0,0,.682,1.548A1.284,1.284,0,0,0,321.921,302.652Z" transform="translate(-210.488 -295.762)" fill="#004886"/>
            <path id="Path_9144-7" data-name="Path 9144" d="M271.18,299.889c1.058-.033,1.711-.53,1.7-1.291a2.357,2.357,0,0,0-1.964-1.936c-.668.017-1.3.888-1.289,1.784a1.53,1.53,0,0,0,.007.186A1.41,1.41,0,0,0,271.18,299.889Z" transform="translate(-198.267 -295.175)" fill="#004886"/>
            <path id="Path_9145-7" data-name="Path 9145" d="M232.79,301.5c.876.016,1.733-.539,1.761-1.135a1.825,1.825,0,0,0-1.565-1.562c-1-.025-1.733.539-1.733,1.337A1.493,1.493,0,0,0,232.79,301.5Z" transform="translate(-189.054 -295.687)" fill="#004886"/>
            <path id="Path_9146-7" data-name="Path 9146" d="M338.061,301.923a1.273,1.273,0,0,0,1.161-1.141,1.957,1.957,0,0,0-1.8-1.945c-.03,0-.059,0-.09,0a1,1,0,0,0-.967,1.034A2.044,2.044,0,0,0,338.061,301.923Z" transform="translate(-214.289 -295.696)" fill="#004886"/>
            <path id="Path_9147-7" data-name="Path 9147" d="M305.494,301.065a1.186,1.186,0,0,0,1.2-1.053,2.524,2.524,0,0,0-1.663-1.838,1.26,1.26,0,0,0-1.239,1.233A1.731,1.731,0,0,0,305.494,301.065Z" transform="translate(-206.469 -295.538)" fill="#004886"/>
            <path id="Path_9148-7" data-name="Path 9148" d="M253.317,299.961a1.323,1.323,0,0,0,1.2-1.332,1.468,1.468,0,0,0-1.288-1.481,1.5,1.5,0,0,0-1.375,1.35A1.757,1.757,0,0,0,253.317,299.961Z" transform="translate(-194.001 -295.291)" fill="#004886"/>
            <path id="Path_9149-7" data-name="Path 9149" d="M434.086,299.007c-.692-.929-1.384-1.859-2.081-2.781a2.811,2.811,0,0,0-.41-.391.748.748,0,0,0-1.169.056c-2.29,2.132-4.329,4.507-6.559,6.7a1.624,1.624,0,0,1-.989.453,2.665,2.665,0,0,1-2.749-1.363c-1.256-1.718-2.794-3.22-3.95-5.021-.021-.033-.043-.063-.064-.095-1.075-1.638-1.217-1.1-2.08-.163-.5.542-1.148.954-1.627,1.492-.62.7-1.319,1.317-1.916,2.034-.768.923-1.548,1.835-2.318,2.757a1.216,1.216,0,0,1-.889.416,2.218,2.218,0,0,1-2.373-1.129c-.692-1.112-1.567-2.108-2.252-3.231-.739-1.209-1.744-2.214-2.54-3.379-.3-.441-.588-.113-.793.1-.8.841-1.607,1.681-2.353,2.571-1.211,1.443-2.378,2.924-3.563,4.391a1.07,1.07,0,0,1-.745.486c-.721.049-1.445.078-2.167.116-.249.013-.366-.144-.483-.334-.834-1.36-1.666-2.719-2.515-4.072a14.36,14.36,0,0,0-2.372-3.133c-.385-.35-.625-.3-.913.085a22.683,22.683,0,0,1-2.98,3.137,48.369,48.369,0,0,0-3.486,3.831,1.2,1.2,0,0,1-1.882.019c-1.026-1.1-1.488-2.575-2.461-3.7s-1.5-2.52-2.425-3.666c-.518-.641-.582-.655-1.048.028a38.95,38.95,0,0,1-4.475,5.1c-.582.6-1.079,1.274-1.629,1.909a1.5,1.5,0,0,1-2.118-.117c-.018-.021-.036-.041-.053-.063-1.224-1.864-2.249-3.845-3.386-5.758a2.56,2.56,0,0,0-.264-.373c-.46-.532-.614-.516-1.149-.055a29.863,29.863,0,0,0-2.473,2.916c-1.032,1.145-2.081,2.276-3.12,3.415a.622.622,0,0,1-.612.21,5.764,5.764,0,0,0-1.767,0,.607.607,0,0,1-.644-.257,26.233,26.233,0,0,1-2.116-3.38c-.43-.8-.808-1.641-1.306-2.406-.334-.509-.5-.55-.933-.14a62.508,62.508,0,0,0-4.389,4.575c-.6.692-1.173,1.4-1.774,2.092a3.744,3.744,0,0,1-2.218.464c-.2-.085-.251-.276-.324-.448a50.088,50.088,0,0,0-3.135-6.158c-.258-.427-.62-.425-1.073.043-.914.945-1.827,1.891-2.714,2.86a36.5,36.5,0,0,0-3.03,3.5,1.27,1.27,0,0,1-1.112.57c-2.195.008-1.957.026-2.638-1.74-.546-1.42-1.138-2.822-1.711-4.231a.794.794,0,0,0-.054-.1c-.678-1.216-1.051-1.26-2.032-.3a53.083,53.083,0,0,0-5.186,5.707c-.565.741-1.295.587-2,.659-.228.022-.328-.223-.419-.418-.761-1.62-1.561-3.219-2.184-4.9-.608-1.644-.906-1.771-2.1-.79-1.189-.981-1.487-.855-2.1.79-.623,1.683-1.423,3.281-2.183,4.9-.091.195-.191.44-.419.418-.709-.072-1.439.082-2-.659a53.066,53.066,0,0,0-5.185-5.707c-.982-.957-1.355-.913-2.033.3a.906.906,0,0,0-.054.1c-.573,1.41-1.164,2.812-1.711,4.231-.681,1.766-.443,1.748-2.638,1.74a1.269,1.269,0,0,1-1.111-.57,36.62,36.62,0,0,0-3.031-3.5c-.888-.97-1.8-1.916-2.714-2.86-.452-.468-.815-.47-1.073-.043a50.19,50.19,0,0,0-3.134,6.158c-.074.172-.122.362-.325.448a3.745,3.745,0,0,1-2.218-.464c-.6-.688-1.176-1.4-1.774-2.092a62.83,62.83,0,0,0-4.389-4.575c-.435-.41-.6-.369-.933.14-.5.764-.877,1.6-1.307,2.406a26.3,26.3,0,0,1-2.116,3.38.608.608,0,0,1-.645.257,5.759,5.759,0,0,0-1.766,0,.621.621,0,0,1-.612-.21c-1.04-1.139-2.089-2.27-3.121-3.415a29.868,29.868,0,0,0-2.473-2.916c-.535-.461-.689-.476-1.148.055a2.567,2.567,0,0,0-.264.373c-1.138,1.913-2.162,3.894-3.386,5.758-.017.022-.035.043-.053.063a1.5,1.5,0,0,1-2.117.117c-.55-.635-1.047-1.311-1.629-1.909a38.944,38.944,0,0,1-4.475-5.1c-.467-.683-.531-.669-1.048-.028-.924,1.146-1.452,2.537-2.425,3.666s-1.436,2.6-2.461,3.7a1.2,1.2,0,0,1-1.883-.019,48.211,48.211,0,0,0-3.486-3.831,22.728,22.728,0,0,1-2.98-3.137c-.289-.382-.528-.435-.913-.085a14.361,14.361,0,0,0-2.373,3.133c-.85,1.353-1.682,2.712-2.515,4.072-.116.19-.232.347-.483.334-.722-.038-1.446-.067-2.167-.116a1.071,1.071,0,0,1-.745-.486c-1.184-1.467-2.351-2.948-3.563-4.391-.746-.89-1.552-1.73-2.353-2.571-.205-.215-.492-.543-.793-.1-.8,1.165-1.8,2.17-2.54,3.379-.685,1.123-1.559,2.119-2.252,3.231a2.217,2.217,0,0,1-2.372,1.129,1.216,1.216,0,0,1-.89-.416c-.77-.922-1.55-1.835-2.317-2.757-.6-.717-1.3-1.335-1.917-2.034-.479-.539-1.126-.951-1.627-1.492-.862-.935-1.005-1.476-2.08.163-.021.032-.043.062-.064.095-1.156,1.8-2.694,3.3-3.95,5.021a2.664,2.664,0,0,1-2.749,1.363,1.624,1.624,0,0,1-.989-.453c-2.23-2.19-4.269-4.565-6.558-6.7a.773.773,0,0,0-.114-.125.749.749,0,0,0-1.056.069,2.805,2.805,0,0,0-.409.391c-.7.923-1.389,1.853-2.081,2.781a13.986,13.986,0,0,1-1.782,2.083l.062,3.661c1.961,0,3.921.011,5.883.007.34,0,.682-.021,1.024-.052a18.492,18.492,0,0,1,3.075-.15,23.354,23.354,0,0,0,2.738.093,13.6,13.6,0,0,1,1.65-.069,30.517,30.517,0,0,0,3.837.135,105.827,105.827,0,0,1,12.906.109c1.447.122,2.9.067,4.341.114a22.353,22.353,0,0,0,4.451-.178,26.411,26.411,0,0,1,6.785-.177c3.279.3,6.549-.053,9.818-.027,1.077.008,2.157.1,3.233.028.992-.069,1.978.1,2.965.005,1.309-.12,2.615-.268,3.933-.259,1.581.012,3.17.1,4.742-.02a23.721,23.721,0,0,1,4.1-.16c1.353.126,2.7-.117,4.053-.106,1.223.01,2.444.06,3.655-.048a19.728,19.728,0,0,1,3.248.069,47.151,47.151,0,0,0,5.92.371,44.191,44.191,0,0,1,4.736.208,8.807,8.807,0,0,0,1.428.1,20.361,20.361,0,0,1,3.25.092,74.745,74.745,0,0,0,8.053.236c.7-.03,1.408-.047,2.113-.066,2.516-.07,5.026.213,7.545.139,1.5-.044,3-.011,4.506.016,1.388.024,2.775.063,4.164.061v.037c.271-.028.544-.031.816-.046.347-.021.695-.036,1.043-.037s.7.016,1.043.037c.272.015.545.018.816.046v-.037c1.389,0,2.776-.036,4.164-.061,1.5-.027,3.006-.06,4.506-.016,2.519.074,5.028-.209,7.545-.139.7.019,1.409.036,2.113.066a74.73,74.73,0,0,0,8.052-.236,20.364,20.364,0,0,1,3.25-.092,8.807,8.807,0,0,0,1.428-.1,44.2,44.2,0,0,1,4.736-.208,47.142,47.142,0,0,0,5.92-.371,19.737,19.737,0,0,1,3.249-.069c1.21.108,2.431.058,3.654.048,1.353-.011,2.7.232,4.053.106a23.721,23.721,0,0,1,4.1.16c1.572.125,3.161.032,4.743.02,1.317-.009,2.623.139,3.932.259.987.093,1.973-.074,2.965-.005,1.075.075,2.155-.02,3.232-.028,3.269-.026,6.54.323,9.819.027a26.4,26.4,0,0,1,6.784.177,22.358,22.358,0,0,0,4.451.178c1.445-.047,2.895.008,4.341-.114a105.828,105.828,0,0,1,12.906-.109,30.518,30.518,0,0,0,3.837-.135,13.592,13.592,0,0,1,1.65.069,23.354,23.354,0,0,0,2.738-.093,18.492,18.492,0,0,1,3.075.15c.342.03.683.052,1.024.052,1.961,0,3.923,0,5.883-.007l.062-3.661A14.033,14.033,0,0,1,434.086,299.007Z" transform="translate(-175.724 -294.705)" fill="#004886"/>
            <path id="Path_9150-7" data-name="Path 9150" d="M479.473,300.972a1.665,1.665,0,0,0,.261.014,2.89,2.89,0,0,0,.565-.074c.989-.2,1.122-.364,1.167-1.351.049-1.117-.375-1.6-1.553-1.758a1.564,1.564,0,0,0-1.928,1.085c-.011.04-.021.081-.029.122A1.755,1.755,0,0,0,479.473,300.972Z" transform="translate(-248.276 -295.434)" fill="#004886"/>
            <path id="Path_9151-7" data-name="Path 9151" d="M499.2,300.445a3.575,3.575,0,0,0,1.424.375c.938.024,1.329-.35,1.436-1.369a1.643,1.643,0,0,0-1.473-1.736c-1.15-.088-2.116.333-2.122,1.56A1.14,1.14,0,0,0,499.2,300.445Z" transform="translate(-253.202 -295.425)" fill="#004886"/>
            <path id="Path_9152-7" data-name="Path 9152" d="M403.8,300.776a1.335,1.335,0,0,0,.412,0c.761-.008,1.725-1.213,1.721-2.145a1.268,1.268,0,0,0-1.31-1.223l-.057,0a1.747,1.747,0,0,0-1.886,1.6,1.766,1.766,0,0,0,0,.229A1.346,1.346,0,0,0,403.8,300.776Z" transform="translate(-230.203 -295.353)" fill="#004886"/>
            <path id="Path_9153-7" data-name="Path 9153" d="M370.913,302.652a1.281,1.281,0,0,0,.7-.445,2.644,2.644,0,0,0,.682-1.548,1.48,1.48,0,0,0-.457-1.23,1.1,1.1,0,0,0-1.5-.042,2.338,2.338,0,0,0-.969,2.326A1.281,1.281,0,0,0,370.913,302.652Z" transform="translate(-222.202 -295.762)" fill="#004886"/>
            <path id="Path_9154-7" data-name="Path 9154" d="M421.564,299.889a1.409,1.409,0,0,0,1.546-1.257,1.524,1.524,0,0,0,.007-.186c.008-.9-.621-1.766-1.289-1.784a2.357,2.357,0,0,0-1.964,1.936C419.853,299.358,420.506,299.855,421.564,299.889Z" transform="translate(-234.334 -295.175)" fill="#004886"/>
            <path id="Path_9155-7" data-name="Path 9155" d="M459.941,301.5a1.494,1.494,0,0,0,1.538-1.361c0-.8-.733-1.362-1.734-1.337a1.825,1.825,0,0,0-1.565,1.562C458.207,300.957,459.064,301.511,459.941,301.5Z" transform="translate(-243.532 -295.687)" fill="#004886"/>
            <path id="Path_9156-7" data-name="Path 9156" d="M354.808,301.923a2.046,2.046,0,0,0,1.7-2.053,1,1,0,0,0-.967-1.034c-.03,0-.06,0-.09,0a1.957,1.957,0,0,0-1.8,1.945A1.273,1.273,0,0,0,354.808,301.923Z" transform="translate(-218.437 -295.696)" fill="#004886"/>
            <path id="Path_9157-7" data-name="Path 9157" d="M387.361,301.065a1.731,1.731,0,0,0,1.7-1.657,1.262,1.262,0,0,0-1.239-1.233,2.524,2.524,0,0,0-1.663,1.838A1.186,1.186,0,0,0,387.361,301.065Z" transform="translate(-226.242 -295.538)" fill="#004886"/>
            <path id="Path_9158-7" data-name="Path 9158" d="M439.614,299.961a1.758,1.758,0,0,0,1.46-1.463,1.5,1.5,0,0,0-1.375-1.35,1.468,1.468,0,0,0-1.287,1.481A1.322,1.322,0,0,0,439.614,299.961Z" transform="translate(-238.786 -295.291)" fill="#004886"/>
          </g>
          <g id="Group_101187-4" data-name="Group 101187" transform="translate(259)">
            <path id="Path_9140-8" data-name="Path 9140" d="M213.549,300.911a2.889,2.889,0,0,1-.565.074,1.674,1.674,0,0,1-.261-.014,1.755,1.755,0,0,1-1.518-1.963c.008-.041.018-.082.029-.122a1.566,1.566,0,0,1,1.929-1.085c1.179.163,1.6.641,1.553,1.758C214.67,300.547,214.537,300.707,213.549,300.911Z" transform="translate(18.473 -295.434)" fill="#004886"/>
            <path id="Path_9141-8" data-name="Path 9141" d="M192.736,300.82a3.579,3.579,0,0,1-1.424-.375,1.141,1.141,0,0,1-.734-1.17c.005-1.227.971-1.648,2.122-1.56a1.643,1.643,0,0,1,1.473,1.736C194.065,300.471,193.673,300.844,192.736,300.82Z" transform="translate(54.684 -295.425)" fill="#004886"/>
            <path id="Path_9142-8" data-name="Path 9142" d="M288.359,300.776a1.346,1.346,0,0,1-1.536-1.537,1.645,1.645,0,0,1,0-.229,1.747,1.747,0,0,1,1.885-1.6l.057,0a1.268,1.268,0,0,1,1.31,1.223C290.084,299.563,289.119,300.767,288.359,300.776Z" transform="translate(-114.352 -295.353)" fill="#004886"/>
            <path id="Path_9143-8" data-name="Path 9143" d="M322.119,302.652a1.281,1.281,0,0,1-1.549-.939,2.339,2.339,0,0,1,.968-2.326,1.1,1.1,0,0,1,1.5.042,1.482,1.482,0,0,1,.457,1.23,2.644,2.644,0,0,1-.682,1.548A1.284,1.284,0,0,1,322.119,302.652Z" transform="translate(-173.408 -295.762)" fill="#004886"/>
            <path id="Path_9144-8" data-name="Path 9144" d="M271.326,299.889c-1.058-.033-1.711-.53-1.7-1.291a2.357,2.357,0,0,1,1.964-1.936c.668.017,1.3.888,1.289,1.784a1.53,1.53,0,0,1-.007.186A1.41,1.41,0,0,1,271.326,299.889Z" transform="translate(-84.096 -295.175)" fill="#004886"/>
            <path id="Path_9145-8" data-name="Path 9145" d="M233.013,301.5c-.876.016-1.733-.539-1.761-1.135a1.825,1.825,0,0,1,1.565-1.562c1-.025,1.733.539,1.733,1.337A1.493,1.493,0,0,1,233.013,301.5Z" transform="translate(-16.605 -295.687)" fill="#004886"/>
            <path id="Path_9146-8" data-name="Path 9146" d="M337.527,301.923a1.273,1.273,0,0,1-1.161-1.141,1.957,1.957,0,0,1,1.8-1.945c.03,0,.059,0,.09,0a1,1,0,0,1,.967,1.034A2.044,2.044,0,0,1,337.527,301.923Z" transform="translate(-201.157 -295.696)" fill="#004886"/>
            <path id="Path_9147-8" data-name="Path 9147" d="M305,301.065a1.186,1.186,0,0,1-1.2-1.053,2.524,2.524,0,0,1,1.663-1.838,1.26,1.26,0,0,1,1.239,1.233A1.731,1.731,0,0,1,305,301.065Z" transform="translate(-143.877 -295.538)" fill="#004886"/>
            <path id="Path_9148-8" data-name="Path 9148" d="M253.062,299.961a1.323,1.323,0,0,1-1.2-1.332,1.468,1.468,0,0,1,1.288-1.481,1.5,1.5,0,0,1,1.375,1.35A1.757,1.757,0,0,1,253.062,299.961Z" transform="translate(-52.234 -295.291)" fill="#004886"/>
            <path id="Path_9149-8" data-name="Path 9149" d="M177.506,299.007c.692-.929,1.384-1.859,2.081-2.781a2.817,2.817,0,0,1,.41-.391.748.748,0,0,1,1.169.056c2.29,2.132,4.329,4.507,6.559,6.7a1.624,1.624,0,0,0,.989.453,2.665,2.665,0,0,0,2.749-1.363c1.256-1.718,2.794-3.22,3.95-5.021.021-.033.043-.063.064-.095,1.074-1.638,1.217-1.1,2.08-.163.5.542,1.148.954,1.627,1.492.62.7,1.319,1.317,1.916,2.034.768.923,1.548,1.835,2.318,2.757a1.216,1.216,0,0,0,.889.416,2.218,2.218,0,0,0,2.373-1.129c.692-1.112,1.567-2.108,2.252-3.231.739-1.209,1.744-2.214,2.54-3.379.3-.441.588-.113.793.1.8.841,1.607,1.681,2.353,2.571,1.211,1.443,2.378,2.924,3.563,4.391a1.07,1.07,0,0,0,.745.486c.721.049,1.445.078,2.167.116.249.013.366-.144.483-.334.834-1.36,1.666-2.719,2.515-4.072a14.36,14.36,0,0,1,2.372-3.133c.385-.35.625-.3.913.085a22.681,22.681,0,0,0,2.98,3.137,48.369,48.369,0,0,1,3.486,3.831,1.2,1.2,0,0,0,1.882.019c1.026-1.1,1.488-2.575,2.461-3.7s1.5-2.52,2.425-3.666c.518-.641.582-.655,1.048.028a38.95,38.95,0,0,0,4.475,5.1c.582.6,1.079,1.274,1.629,1.909a1.5,1.5,0,0,0,2.118-.117c.018-.021.036-.041.053-.063,1.224-1.864,2.249-3.845,3.386-5.758a2.56,2.56,0,0,1,.264-.373c.46-.532.614-.516,1.149-.055a29.863,29.863,0,0,1,2.473,2.916c1.032,1.145,2.081,2.276,3.12,3.415a.622.622,0,0,0,.612.21,5.764,5.764,0,0,1,1.767,0,.607.607,0,0,0,.644-.257,26.233,26.233,0,0,0,2.116-3.38c.43-.8.808-1.641,1.306-2.406.334-.509.5-.55.933-.14a62.508,62.508,0,0,1,4.389,4.575c.6.692,1.173,1.4,1.774,2.092a3.744,3.744,0,0,0,2.218.464c.2-.085.251-.276.324-.448a50.088,50.088,0,0,1,3.135-6.158c.258-.427.62-.425,1.073.043.914.945,1.827,1.891,2.714,2.86a36.5,36.5,0,0,1,3.03,3.5,1.27,1.27,0,0,0,1.112.57c2.195.008,1.957.026,2.638-1.74.546-1.42,1.138-2.822,1.711-4.231a.794.794,0,0,1,.054-.1c.678-1.216,1.051-1.26,2.032-.3a53.083,53.083,0,0,1,5.186,5.707c.565.741,1.295.587,2,.659.228.022.328-.223.419-.418.761-1.62,1.561-3.219,2.184-4.9.608-1.644.906-1.771,2.1-.79,1.189-.981,1.487-.855,2.1.79.623,1.683,1.423,3.281,2.183,4.9.091.195.191.44.419.418.709-.072,1.439.082,2-.659a53.066,53.066,0,0,1,5.185-5.707c.982-.957,1.355-.913,2.033.3a.906.906,0,0,1,.054.1c.573,1.41,1.164,2.812,1.711,4.231.681,1.766.443,1.748,2.638,1.74a1.269,1.269,0,0,0,1.111-.57,36.62,36.62,0,0,1,3.031-3.5c.888-.97,1.8-1.916,2.714-2.86.452-.468.815-.47,1.073-.043a50.19,50.19,0,0,1,3.134,6.158c.074.172.122.362.325.448a3.745,3.745,0,0,0,2.218-.464c.6-.688,1.176-1.4,1.774-2.092a62.83,62.83,0,0,1,4.389-4.575c.435-.41.6-.369.933.14.5.764.877,1.6,1.307,2.406a26.3,26.3,0,0,0,2.116,3.38.608.608,0,0,0,.645.257,5.759,5.759,0,0,1,1.766,0,.621.621,0,0,0,.612-.21c1.04-1.139,2.089-2.27,3.121-3.415a29.868,29.868,0,0,1,2.473-2.916c.535-.461.689-.476,1.148.055a2.567,2.567,0,0,1,.264.373c1.138,1.913,2.162,3.894,3.386,5.758.017.022.035.043.053.063a1.5,1.5,0,0,0,2.117.117c.55-.635,1.047-1.311,1.629-1.909a38.944,38.944,0,0,0,4.475-5.1c.467-.683.531-.669,1.048-.028.924,1.146,1.452,2.537,2.425,3.666s1.436,2.6,2.461,3.7a1.2,1.2,0,0,0,1.883-.019,48.2,48.2,0,0,1,3.486-3.831,22.73,22.73,0,0,0,2.98-3.137c.289-.382.528-.435.913-.085a14.361,14.361,0,0,1,2.373,3.133c.85,1.353,1.682,2.712,2.515,4.072.116.19.232.347.483.334.722-.038,1.446-.067,2.167-.116a1.071,1.071,0,0,0,.745-.486c1.184-1.467,2.351-2.948,3.563-4.391.746-.89,1.552-1.73,2.353-2.571.205-.215.492-.543.793-.1.8,1.165,1.8,2.17,2.54,3.379.685,1.123,1.559,2.119,2.252,3.231a2.217,2.217,0,0,0,2.373,1.129,1.217,1.217,0,0,0,.89-.416c.77-.922,1.55-1.835,2.317-2.757.6-.717,1.3-1.335,1.917-2.034.479-.539,1.126-.951,1.627-1.492.862-.935,1.005-1.476,2.08.163.021.032.043.062.064.095,1.156,1.8,2.694,3.3,3.95,5.021a2.664,2.664,0,0,0,2.749,1.363,1.624,1.624,0,0,0,.989-.453c2.23-2.19,4.269-4.565,6.558-6.7a.776.776,0,0,1,.114-.125.749.749,0,0,1,1.056.069,2.806,2.806,0,0,1,.409.391c.7.923,1.389,1.853,2.081,2.781a13.986,13.986,0,0,0,1.782,2.083l-.062,3.661c-1.961,0-3.921.011-5.883.007-.34,0-.682-.021-1.024-.052a18.492,18.492,0,0,0-3.075-.15,23.355,23.355,0,0,1-2.738.093,13.606,13.606,0,0,0-1.65-.069,30.518,30.518,0,0,1-3.837.135,105.827,105.827,0,0,0-12.906.109c-1.447.122-2.9.067-4.341.114a22.353,22.353,0,0,1-4.451-.178,26.411,26.411,0,0,0-6.785-.177c-3.279.3-6.549-.053-9.818-.027-1.077.008-2.157.1-3.233.028-.992-.069-1.978.1-2.965.005-1.309-.12-2.615-.268-3.933-.259-1.581.012-3.17.1-4.742-.02a23.721,23.721,0,0,0-4.1-.16c-1.353.126-2.7-.117-4.053-.106-1.223.01-2.444.06-3.655-.048a19.725,19.725,0,0,0-3.248.069,47.151,47.151,0,0,1-5.92.371,44.191,44.191,0,0,0-4.736.208,8.807,8.807,0,0,1-1.428.1,20.361,20.361,0,0,0-3.25.092,74.745,74.745,0,0,1-8.053.236c-.7-.03-1.408-.047-2.113-.066-2.516-.07-5.026.213-7.545.139-1.5-.044-3-.011-4.506.016-1.388.024-2.775.063-4.164.061v.037c-.271-.028-.544-.031-.816-.046-.347-.021-.695-.036-1.043-.037s-.7.016-1.043.037c-.272.015-.545.018-.816.046v-.037c-1.389,0-2.776-.036-4.164-.061-1.5-.027-3.006-.06-4.506-.016-2.519.074-5.028-.209-7.545-.139-.7.019-1.409.036-2.113.066a74.73,74.73,0,0,1-8.052-.236,20.364,20.364,0,0,0-3.25-.092,8.807,8.807,0,0,1-1.428-.1,44.2,44.2,0,0,0-4.736-.208,47.142,47.142,0,0,1-5.92-.371,19.733,19.733,0,0,0-3.249-.069c-1.21.108-2.431.058-3.654.048-1.353-.011-2.7.232-4.053.106a23.721,23.721,0,0,0-4.1.16c-1.572.125-3.161.032-4.743.02-1.317-.009-2.623.139-3.932.259-.987.093-1.973-.074-2.965-.005-1.075.075-2.155-.02-3.232-.028-3.269-.026-6.54.323-9.819.027a26.405,26.405,0,0,0-6.784.177,22.357,22.357,0,0,1-4.451.178c-1.445-.047-2.895.008-4.341-.114a105.828,105.828,0,0,0-12.906-.109,30.518,30.518,0,0,1-3.837-.135,13.593,13.593,0,0,0-1.65.069,23.354,23.354,0,0,1-2.738-.093,18.492,18.492,0,0,0-3.075.15c-.342.03-.683.052-1.024.052-1.961,0-3.923,0-5.883-.007l-.062-3.661A14.033,14.033,0,0,0,177.506,299.007Z" transform="translate(-175.724 -294.705)" fill="#004886"/>
            <path id="Path_9150-8" data-name="Path 9150" d="M479.936,300.972a1.665,1.665,0,0,1-.261.014,2.889,2.889,0,0,1-.565-.074c-.989-.2-1.122-.364-1.167-1.351-.049-1.117.375-1.6,1.553-1.758a1.564,1.564,0,0,1,1.928,1.085c.011.04.021.081.029.122A1.755,1.755,0,0,1,479.936,300.972Z" transform="translate(-450.989 -295.434)" fill="#004886"/>
            <path id="Path_9151-8" data-name="Path 9151" d="M501.322,300.445a3.575,3.575,0,0,1-1.424.375c-.938.024-1.329-.35-1.436-1.369a1.643,1.643,0,0,1,1.473-1.736c1.15-.088,2.116.333,2.122,1.56A1.14,1.14,0,0,1,501.322,300.445Z" transform="translate(-487.175 -295.425)" fill="#004886"/>
            <path id="Path_9152-8" data-name="Path 9152" d="M404.792,300.776a1.335,1.335,0,0,1-.412,0c-.761-.008-1.725-1.213-1.721-2.145a1.268,1.268,0,0,1,1.31-1.223l.057,0a1.747,1.747,0,0,1,1.886,1.6,1.766,1.766,0,0,1,0,.229A1.346,1.346,0,0,1,404.792,300.776Z" transform="translate(-318.244 -295.353)" fill="#004886"/>
            <path id="Path_9153-8" data-name="Path 9153" d="M370.715,302.652a1.281,1.281,0,0,1-.7-.445,2.644,2.644,0,0,1-.682-1.548,1.48,1.48,0,0,1,.457-1.23,1.1,1.1,0,0,1,1.5-.042,2.338,2.338,0,0,1,.969,2.326A1.281,1.281,0,0,1,370.715,302.652Z" transform="translate(-259.282 -295.762)" fill="#004886"/>
            <path id="Path_9154-8" data-name="Path 9154" d="M421.419,299.889a1.409,1.409,0,0,1-1.546-1.257,1.524,1.524,0,0,1-.007-.186c-.008-.9.621-1.766,1.289-1.784a2.357,2.357,0,0,1,1.964,1.936C423.13,299.358,422.476,299.855,421.419,299.889Z" transform="translate(-348.505 -295.175)" fill="#004886"/>
            <path id="Path_9155-8" data-name="Path 9155" d="M459.717,301.5a1.494,1.494,0,0,1-1.538-1.361c0-.8.733-1.362,1.734-1.337a1.825,1.825,0,0,1,1.565,1.562C461.451,300.957,460.594,301.511,459.717,301.5Z" transform="translate(-415.982 -295.687)" fill="#004886"/>
            <path id="Path_9156-8" data-name="Path 9156" d="M355.343,301.923a2.046,2.046,0,0,1-1.7-2.053,1,1,0,0,1,.967-1.034c.03,0,.06,0,.09,0a1.957,1.957,0,0,1,1.8,1.945A1.273,1.273,0,0,1,355.343,301.923Z" transform="translate(-231.57 -295.696)" fill="#004886"/>
            <path id="Path_9157-8" data-name="Path 9157" d="M387.86,301.065a1.731,1.731,0,0,1-1.7-1.657,1.262,1.262,0,0,1,1.239-1.233,2.524,2.524,0,0,1,1.663,1.838A1.186,1.186,0,0,1,387.86,301.065Z" transform="translate(-288.835 -295.538)" fill="#004886"/>
            <path id="Path_9158-8" data-name="Path 9158" d="M439.871,299.961a1.758,1.758,0,0,1-1.46-1.463,1.5,1.5,0,0,1,1.375-1.35,1.468,1.468,0,0,1,1.287,1.481A1.322,1.322,0,0,1,439.871,299.961Z" transform="translate(-380.555 -295.291)" fill="#004886"/>
          </g>
        </g>
      </g>
    </g>
  </g>
</svg>
